<?xml version="1.0" encoding="UTF-8" standalone="no"?>
<!-- Created with Inkscape (http://www.inkscape.org/) -->

<svg
   xmlns:dc="http://purl.org/dc/elements/1.1/"
   xmlns:cc="http://creativecommons.org/ns#"
   xmlns:rdf="http://www.w3.org/1999/02/22-rdf-syntax-ns#"
   xmlns:svg="http://www.w3.org/2000/svg"
   xmlns="http://www.w3.org/2000/svg"
   xmlns:sodipodi="http://sodipodi.sourceforge.net/DTD/sodipodi-0.dtd"
   xmlns:inkscape="http://www.inkscape.org/namespaces/inkscape"
   width="744.09448819"
   height="1052.3622047"
   id="svg2"
   version="1.1"
   inkscape:version="0.48.0 r9654"
   sodipodi:docname="New document 1">
  <defs
     id="defs4" />
  <sodipodi:namedview
     id="base"
     pagecolor="#ffffff"
     bordercolor="#666666"
     borderopacity="1.0"
     inkscape:pageopacity="0.0"
     inkscape:pageshadow="2"
     inkscape:zoom="1.01"
     inkscape:cx="366.42857"
     inkscape:cy="520"
     inkscape:document-units="px"
     inkscape:current-layer="layer1"
     showgrid="false"
     inkscape:window-width="1285"
     inkscape:window-height="974"
     inkscape:window-x="0"
     inkscape:window-y="24"
     inkscape:window-maximized="0" />
  <metadata
     id="metadata7">
    <rdf:RDF>
      <cc:Work
         rdf:about="">
        <dc:format>image/svg+xml</dc:format>
        <dc:type
           rdf:resource="http://purl.org/dc/dcmitype/StillImage" />
        <dc:title></dc:title>
      </cc:Work>
    </rdf:RDF>
  </metadata>
  <g
     inkscape:label="Layer 1"
     inkscape:groupmode="layer"
     id="layer1">
    <path
       sodipodi:type="spiral"
       style="fill:none;stroke:#000000;stroke-width:1px;stroke-linecap:butt;stroke-linejoin:miter;stroke-opacity:1"
       id="path2985"
       sodipodi:cx="246.1619"
       sodipodi:cy="323.80237"
       sodipodi:expansion="1"
       sodipodi:revolution="3.0632334"
       sodipodi:radius="208.07327"
       sodipodi:argument="-17.891081"
       sodipodi:t0="0"
       d="m 246.1619,323.80237 c 5.87247,8.36082 -8.37296,12.04091 -13.89624,9.76043 -14.96777,-6.17994 -13.98401,-26.56368 -5.62464,-37.55291 14.95296,-19.65716 44.41416,-17.11566 61.20959,-1.48883 24.64798,22.933 20.38731,62.52383 -2.64697,84.86627 -30.70108,29.77894 -80.72776,23.72144 -108.52294,-6.78278 -34.9774,-38.38645 -27.08847,-98.97715 10.91858,-132.17962 46.03164,-40.21263 117.25226,-30.47465 155.83629,15.05439 45.46994,53.6544 33.87288,135.54342 -19.19019,179.49296 -61.26342,50.74149 -153.84529,37.27914 -203.14964,-23.32599 -56.022731,-68.86341 -40.691014,-172.15468 27.4618,-226.80631 76.45715,-61.31088 190.46955,-44.10697 250.46299,31.5976 66.60408,84.04641 47.52595,208.78854 -35.73341,274.11966 -21.50001,16.87041 -46.37417,29.32007 -72.73043,36.52717"
       transform="translate(119.11059,140.94754)" />
    <path
       sodipodi:type="spiral"
       style="fill:none;stroke:#000000;stroke-width:1px;stroke-linecap:butt;stroke-linejoin:miter;stroke-opacity:1"
       id="path2987"
       sodipodi:cx="383.13907"
       sodipodi:cy="472.69061"
       sodipodi:expansion="1"
       sodipodi:revolution="2.9806087"
       sodipodi:radius="171.03384"
       sodipodi:argument="-17.354317"
       sodipodi:t0="0"
       d="m 383.13907,472.69061 c 0.65152,8.60653 -11.27999,5.1244 -14.30462,1.08288 -8.19655,-10.95228 1.32304,-25.32533 12.13886,-29.69211 19.34698,-7.81115 39.6371,6.76063 45.07961,25.3606 7.9871,27.29621 -12.20856,54.19752 -38.58234,60.4671 -35.15211,8.35637 -68.85335,-17.65184 -75.8546,-51.80408 -8.81035,-42.97711 23.09089,-83.5564 65.02583,-91.24209 50.78882,-9.30841 98.28638,28.52713 106.62958,78.24756 9.83217,58.59381 -33.96157,113.03324 -91.4693,122.01708 -66.39496,10.37221 -127.79133,-39.3948 -137.40458,-104.69104 -10.92318,-74.19374 44.82721,-142.55731 117.91279,-152.79207 81.99097,-11.48186 157.32902,50.25902 168.17956,131.13452 10.97839,81.82844 -44.6384,159.34613 -123.80818,179.62411"
       transform="matrix(1.0136999,0,0,1.0126777,-21.326448,-14.080952)" />
    <path
       style="fill:none;stroke:#000000;stroke-width:1px;stroke-linecap:butt;stroke-linejoin:miter;stroke-opacity:1"
       d="M 411.32299,667.32181 C 400.80995,634.46853 400.80995,634.46853 400.80995,634.46853"
       id="path3018"
       inkscape:connector-curvature="0" />
    <path
       style="fill:#000000"
       d="m 407.19984,650.56826 c -4.02655,-12.93999 -4.3401,-14.88783 -2.51389,-15.61662 1.14755,-0.45794 7.40867,-2.75468 13.91362,-5.10384 54.8445,-19.80624 97.71104,-70.78387 107.7269,-128.11062 2.73364,-15.64626 2.76948,-42.95077 0.0745,-56.80025 -9.56371,-49.14937 -40.85487,-90.27373 -85.26542,-112.06001 -40.71246,-19.97214 -85.40449,-20.68965 -125.19933,-2.01002 -29.5776,13.88368 -53.58296,37.15396 -67.82236,65.74555 -9.77792,19.6333 -13.42508,35.72978 -13.3991,59.1359 0.0249,22.41697 2.95162,35.54204 12.30752,55.1935 7.57542,15.91169 15.2021,26.22483 28.83133,38.98704 21.49802,20.13043 46.63774,30.79682 76.03919,32.26226 32.75897,1.63278 60.80485,-8.33293 83.42699,-29.64463 11.40024,-10.73985 18.16254,-19.73635 24.79414,-32.98589 8.09599,-16.1753 9.73824,-24.06485 9.72675,-46.72858 -0.009,-18.73681 -0.21329,-20.28154 -4.11946,-31.22534 -5.88782,-16.4958 -11.3549,-24.98653 -24.81799,-38.54397 -9.66675,-9.73449 -13.92664,-12.95853 -22.99764,-17.40552 -15.4615,-7.57989 -25.4124,-9.92521 -42.01529,-9.90257 -24.98234,0.0341 -42.23127,7.15596 -59.91594,24.73859 -12.32133,12.25023 -19.00854,24.25354 -22.36403,40.1426 -6.78344,32.12124 9.22821,64.52953 38.86783,78.67025 8.5313,4.07018 11.37604,4.74881 21.82183,5.20567 19.50534,0.8531 32.50135,-4.13791 44.82146,-17.21329 8.01924,-8.51086 11.87375,-16.33198 13.34276,-27.07355 2.07011,-15.13702 -1.95443,-27.53532 -12.15254,-37.43807 -13.70691,-13.30991 -35.5747,-13.33596 -46.52164,-0.0555 -9.70355,11.77208 -5.20643,27.82096 7.90811,28.22179 2.85941,0.0874 2.88061,0.15314 0.39379,1.22176 -1.44554,0.62118 -4.59567,1.17097 -7.00027,1.22177 -8.40136,0.17749 -15.84821,-11.87539 -13.83886,-22.39845 6.12688,-32.08675 52.04639,-35.87365 71.92106,-5.9312 6.73337,10.14425 9.18094,20.00369 8.39363,33.81181 -0.56921,9.98291 -1.34046,12.86916 -6.02518,22.54778 -11.50089,23.7608 -33.36791,36.84535 -61.32197,36.6932 -29.8725,-0.16256 -56.22071,-16.87528 -69.78025,-44.2617 -7.59729,-15.34438 -10.2097,-27.69292 -9.31344,-44.02339 2.24727,-40.94653 29.52573,-75.32235 69.88158,-88.06347 14.41541,-4.55123 38.83225,-5.14559 55.27697,-1.34556 43.75563,10.11101 77.267,44.80773 86.73121,89.79904 2.49459,11.85887 2.54115,35.60279 0.0946,48.23283 -14.98314,77.34818 -93.50005,124.01512 -171.25141,101.7842 -47.73267,-13.64786 -86.27133,-50.82879 -100.73364,-97.18474 -6.21563,-19.92291 -6.78877,-24.05057 -6.75146,-48.62284 0.031,-20.39003 0.46448,-25.3772 3.14146,-36.13861 16.68796,-67.08531 66.19025,-113.25176 135.46344,-126.33489 12.83754,-2.42453 45.61528,-2.00343 59.79296,0.76817 32.93866,6.43918 62.76999,20.72916 87.38971,41.8619 30.68434,26.3384 51.50466,63.35377 60.01755,106.70212 3.13949,15.98664 3.10953,50.4754 -0.0582,67.02068 -8.23003,42.98556 -27.21434,78.733 -57.78325,108.80582 -13.93497,13.70883 -29.62654,24.72804 -49.48479,34.75009 -13.14911,6.63609 -30.62962,13.48274 -34.42345,13.48274 -0.34637,0 -2.69991,-6.65279 -5.2301,-14.78398 z"
       id="path3024"
       inkscape:connector-curvature="0" />
  </g>
</svg>
