<?xml version="1.0" encoding="UTF-8" standalone="no"?>
<!-- Created with Inkscape (http://www.inkscape.org/) -->
<svg
   xmlns:dc="http://purl.org/dc/elements/1.1/"
   xmlns:cc="http://creativecommons.org/ns#"
   xmlns:rdf="http://www.w3.org/1999/02/22-rdf-syntax-ns#"
   xmlns:svg="http://www.w3.org/2000/svg"
   xmlns="http://www.w3.org/2000/svg"
   xmlns:sodipodi="http://sodipodi.sourceforge.net/DTD/sodipodi-0.dtd"
   xmlns:inkscape="http://www.inkscape.org/namespaces/inkscape"
   width="130"
   height="40"
   id="svg2"
   sodipodi:version="0.32"
   inkscape:version="0.46"
   version="1.0"
   sodipodi:docname="newlogo.svg"
   inkscape:output_extension="org.inkscape.output.svg.inkscape"
   inkscape:export-filename="C:\Subversion\Nathandelane\trunk\Web Stuff\newlogo.png"
   inkscape:export-xdpi="83.800003"
   inkscape:export-ydpi="83.800003">
  <defs
     id="defs4">
    <inkscape:perspective
       sodipodi:type="inkscape:persp3d"
       inkscape:vp_x="0 : 526.18109 : 1"
       inkscape:vp_y="0 : 1000 : 0"
       inkscape:vp_z="744.09448 : 526.18109 : 1"
       inkscape:persp3d-origin="372.04724 : 350.78739 : 1"
       id="perspective10" />
    <inkscape:perspective
       id="perspective2473"
       inkscape:persp3d-origin="372.04724 : 350.78739 : 1"
       inkscape:vp_z="744.09448 : 526.18109 : 1"
       inkscape:vp_y="0 : 1000 : 0"
       inkscape:vp_x="0 : 526.18109 : 1"
       sodipodi:type="inkscape:persp3d" />
  </defs>
  <sodipodi:namedview
     id="base"
     pagecolor="#000000"
     bordercolor="#666666"
     borderopacity="1.0"
     gridtolerance="10000"
     guidetolerance="10"
     objecttolerance="10"
     inkscape:pageopacity="0"
     inkscape:pageshadow="2"
     inkscape:zoom="4.5333333"
     inkscape:cx="43.995623"
     inkscape:cy="40.620588"
     inkscape:document-units="px"
     inkscape:current-layer="layer2"
     showgrid="false"
     inkscape:showpageshadow="false" />
  <metadata
     id="metadata7">
    <rdf:RDF>
      <cc:Work
         rdf:about="">
        <dc:format>image/svg+xml</dc:format>
        <dc:type
           rdf:resource="http://purl.org/dc/dcmitype/StillImage" />
      </cc:Work>
    </rdf:RDF>
  </metadata>
  <g
     inkscape:label="Layer 1"
     inkscape:groupmode="layer"
     id="layer1">
    <path
       style="font-size:24px;font-style:normal;font-variant:normal;font-weight:bold;font-stretch:normal;text-align:start;line-height:100%;writing-mode:lr-tb;text-anchor:start;fill:#ffffff;fill-opacity:1;stroke:none;stroke-width:1px;stroke-linecap:butt;stroke-linejoin:miter;stroke-opacity:1;font-family:Arial;-inkscape-font-specification:Arial Bold"
       d="M 0.55859375,22.35294 L 0.55859375,5.1732521 L 6.125,5.1732521 C 8.2343656,5.1732693 9.6093642,5.2592067 10.25,5.4310646 C 11.234363,5.6888938 12.058581,6.2494401 12.722656,7.1127052 C 13.386704,7.9760009 13.718735,9.0912341 13.71875,10.458408 C 13.718735,11.513107 13.527329,12.399825 13.144531,13.118565 C 12.761705,13.837323 12.275377,14.401776 11.685547,14.811924 C 11.095691,15.222087 10.496082,15.493571 9.8867188,15.626377 C 9.0585835,15.790446 7.859366,15.872477 6.2890625,15.872471 L 4.0273438,15.872471 L 4.0273438,22.35294 L 0.55859375,22.35294 z M 4.0273438,8.0795021 L 4.0273438,12.954502 L 5.9257812,12.954502 C 7.2929603,12.954512 8.2070219,12.864668 8.6679688,12.684971 C 9.1288959,12.505293 9.4902237,12.224043 9.7519531,11.841221 C 10.013661,11.458419 10.14452,11.013107 10.144531,10.505283 C 10.14452,9.8802958 9.9609264,9.3646713 9.59375,8.9584084 C 9.2265521,8.5521722 8.7617088,8.2982662 8.1992188,8.1966896 C 7.7851473,8.1185788 6.9531169,8.0795164 5.703125,8.0795021 L 4.0273438,8.0795021 z M 19.847656,5.1732521 L 19.847656,11.489658 C 20.91015,10.247483 22.17968,9.6263898 23.65625,9.6263771 C 24.414053,9.6263898 25.097646,9.7670147 25.707031,10.048252 C 26.316395,10.329514 26.775379,10.688889 27.083984,11.126377 C 27.392566,11.563888 27.603503,12.048262 27.716797,12.579502 C 27.830065,13.110761 27.886706,13.934979 27.886719,15.052158 L 27.886719,22.35294 L 24.59375,22.35294 L 24.59375,15.778721 C 24.59374,14.474041 24.53124,13.645917 24.40625,13.294346 C 24.281241,12.942793 24.060538,12.663496 23.744141,12.456455 C 23.427726,12.249434 23.031242,12.145919 22.554688,12.145908 C 22.007805,12.145919 21.519525,12.278731 21.089844,12.544346 C 20.66015,12.80998 20.345698,13.210371 20.146484,13.745518 C 19.947261,14.280682 19.847651,15.071697 19.847656,16.118565 L 19.847656,22.35294 L 16.554688,22.35294 L 16.554688,5.1732521 L 19.847656,5.1732521 z M 29.679688,9.9076271 L 33.183594,9.9076271 L 36.160156,18.743565 L 39.066406,9.9076271 L 42.476562,9.9076271 L 38.082031,21.88419 L 37.296875,24.052158 C 37.007805,24.778718 36.732415,25.333405 36.470703,25.716221 C 36.208978,26.09903 35.908197,26.409576 35.568359,26.647861 C 35.22851,26.886138 34.810542,27.071685 34.314453,27.204502 C 33.818355,27.33731 33.257809,27.403716 32.632812,27.403721 C 31.999998,27.403716 31.378904,27.33731 30.769531,27.204502 L 30.476562,24.626377 C 30.992186,24.727937 31.457029,24.778718 31.871094,24.778721 C 32.636716,24.778718 33.203121,24.554109 33.570312,24.104893 C 33.937496,23.655673 34.218745,23.083408 34.414062,22.388096 L 29.679688,9.9076271 z M 44.597656,22.35294 L 44.597656,5.1732521 L 47.890625,5.1732521 L 47.890625,22.35294 L 44.597656,22.35294 z M 64.601562,5.1732521 L 71.46875,5.1732521 C 72.828115,5.1732693 73.841786,5.2299099 74.509766,5.343174 C 75.177722,5.4564721 75.775378,5.6928 76.302734,6.0521584 C 76.830064,6.4115493 77.269517,6.8900644 77.621094,7.4877052 C 77.972641,8.0853757 78.148422,8.755297 78.148438,9.4974709 C 78.148422,10.30217 77.931626,11.040451 77.498047,11.712315 C 77.064439,12.3842 76.476549,12.888105 75.734375,13.224033 C 76.781236,13.52873 77.585923,14.04826 78.148438,14.782627 C 78.710922,15.517009 78.992171,16.380289 78.992188,17.372471 C 78.992171,18.153725 78.810531,18.91349 78.447266,19.651768 C 78.083969,20.390051 77.587876,20.979894 76.958984,21.421299 C 76.330065,21.862706 75.554675,22.13419 74.632812,22.235752 C 74.054676,22.298252 72.660146,22.337315 70.449219,22.35294 L 64.601562,22.35294 L 64.601562,5.1732521 z M 68.070312,8.0326271 L 68.070312,12.005283 L 70.34375,12.005283 C 71.695304,12.005294 72.535147,11.985762 72.863281,11.94669 C 73.457021,11.876388 73.923817,11.67131 74.263672,11.331455 C 74.603504,10.991623 74.773426,10.544358 74.773438,9.9896584 C 74.773426,9.4584213 74.626941,9.0267811 74.333984,8.6947365 C 74.041004,8.3627192 73.605458,8.1615475 73.027344,8.0912209 C 72.683584,8.0521727 71.695304,8.0326414 70.0625,8.0326271 L 68.070312,8.0326271 z M 68.070312,14.864658 L 68.070312,19.458408 L 71.28125,19.458408 C 72.53124,19.458411 73.324208,19.423255 73.660156,19.35294 C 74.17577,19.259193 74.595691,19.030677 74.919922,18.667393 C 75.244128,18.304116 75.406237,17.817788 75.40625,17.208408 C 75.406237,16.692789 75.281238,16.255289 75.03125,15.895908 C 74.781238,15.53654 74.41991,15.274822 73.947266,15.110752 C 73.474599,14.946697 72.449209,14.864666 70.871094,14.864658 L 68.070312,14.864658 z M 103.0625,22.35294 L 108.93359,13.388096 L 103.61328,5.1732521 L 107.66797,5.1732521 L 111.11328,10.692783 L 114.48828,5.1732521 L 118.50781,5.1732521 L 113.16406,13.517002 L 119.03516,22.35294 L 114.85156,22.35294 L 111.04297,16.411533 L 107.22266,22.35294 L 103.0625,22.35294 z"
       id="text2383"
       sodipodi:nodetypes="cccsssssccccccccsssssccccssssccccsssssccccccccccccssssccsscccccccccssssscsssssccccccssssscccccsssssccccccccccccccc" />
  </g>
  <g
     inkscape:groupmode="layer"
     id="layer2">
    <g
       id="g2507"
       transform="translate(1.1029412,-5.0735298)"
       style="display:none">
      <g
         id="g2479">
        <path
           id="path2505"
           d="M -0.0214274,-17.279411 L -0.0214274,-31.779411 L 61.978573,-31.779411 L 123.97857,-31.779411 L 123.97857,-17.279411 L 123.97857,-2.779411 L 61.978573,-2.779411 L -0.0214274,-2.779411 L -0.0214274,-17.279411 z"
           style="fill:#fcfdfd" />
        <path
           id="path2503"
           d="M -0.0214274,-17.279411 L -0.0214274,-31.779411 L 61.978573,-31.779411 L 123.97857,-31.779411 L 123.97857,-17.279411 L 123.97857,-2.779411 L 61.978573,-2.779411 L -0.0214274,-2.779411 L -0.0214274,-17.279411 z M 104.97483,-13.622529 C 104.97278,-13.983814 104.13021,-15.658346 103.10246,-17.343712 C 101.48923,-19.989196 101.4214,-20.664529 102.6062,-22.284841 C 104.27708,-24.569911 104.35759,-25.779411 102.83881,-25.779411 C 101.29111,-25.779411 99.0494,-22.684716 99.010376,-20.494228 C 98.992885,-19.512377 99.678076,-17.641468 100.53302,-16.336651 C 102.023,-14.062661 101.94471,-13.85537 98.645694,-11.339083 L 95.203913,-8.713908 L 91.621293,-10.827705 C 88.123475,-12.891469 88.07683,-12.999736 89.650665,-15.401713 C 91.947559,-18.907216 92.07733,-22.380062 89.982276,-24.27606 C 87.635147,-26.400182 86.148351,-24.35841 88.300404,-21.966398 C 89.664057,-20.450693 89.623238,-20.039717 87.898365,-17.918627 C 84.717801,-14.007462 85.430912,-11.494164 90.698746,-8.048919 L 95.418918,-4.961852 L 100.19874,-8.96375 C 102.82765,-11.164794 104.97689,-13.261244 104.97483,-13.622529 z M 34.727865,-9.603303 C 35.691449,-10.215153 40.978573,-21.94339 40.978573,-23.469024 C 40.978573,-23.639737 40.303573,-23.779411 39.478573,-23.779411 C 38.653573,-23.779411 37.978573,-23.358706 37.978573,-22.844511 C 37.978573,-22.330315 37.49058,-20.642815 36.894144,-19.094511 L 35.809714,-16.279411 L 33.870254,-20.029411 C 32.803551,-22.091911 31.491544,-23.779411 30.954683,-23.779411 C 29.652898,-23.779411 29.674717,-23.667456 31.956611,-18.638615 C 34.332163,-13.40337 34.50643,-10.779411 32.478573,-10.779411 C 31.653573,-10.779411 30.978573,-10.329411 30.978573,-9.779411 C 30.978573,-8.587714 32.980365,-8.493688 34.727865,-9.603303 z M 67.312536,-19.052917 C 68.662027,-23.302488 69.433311,-26.779411 69.0265,-26.779411 C 68.37959,-26.779411 63.978573,-13.195738 63.978573,-11.19906 C 63.978573,-9.38626 65.027421,-11.857043 67.312536,-19.052917 z M 96.978573,-12.779411 C 98.110496,-14.894429 96.815502,-18.779411 94.978573,-18.779411 C 94.467275,-18.779411 93.567275,-17.879411 92.978573,-16.779411 C 91.84665,-14.664393 93.141644,-10.779411 94.978573,-10.779411 C 95.489871,-10.779411 96.389871,-11.679411 96.978573,-12.779411 z M 93.616947,-13.279411 C 92.960296,-14.990616 93.80414,-17.779411 94.978573,-17.779411 C 96.153006,-17.779411 96.99685,-14.990616 96.340199,-13.279411 C 96.023617,-12.454411 95.410885,-11.779411 94.978573,-11.779411 C 94.546261,-11.779411 93.933529,-12.454411 93.616947,-13.279411 z M 4.9785726,-15.16812 C 4.9785726,-17.104754 5.6386653,-17.680663 8.4664195,-18.211153 C 15.9961,-19.62373 14.699754,-25.605654 6.6677603,-26.510976 L 1.9785726,-27.039516 L 1.9785726,-19.909463 C 1.9785726,-14.238306 2.2854907,-12.779411 3.4785726,-12.779411 C 4.3932698,-12.779411 4.9785726,-13.71149 4.9785726,-15.16812 z M 4.9785726,-22.279411 C 4.9785726,-24.561647 5.3447826,-24.870119 7.7285726,-24.595833 C 9.7064318,-24.368256 10.478573,-23.717854 10.478573,-22.279411 C 10.478573,-20.840968 9.7064318,-20.190566 7.7285726,-19.962989 C 5.3447826,-19.688703 4.9785726,-19.997175 4.9785726,-22.279411 z M 20.160202,-16.886777 C 20.747657,-23.04682 19.969494,-27.779411 18.369167,-27.779411 C 17.305317,-27.779411 16.978573,-26.017159 16.978573,-20.279411 C 16.978573,-14.530398 17.304248,-12.779411 18.373538,-12.779411 C 19.27683,-12.779411 19.906562,-14.227102 20.160202,-16.886777 z M 27.978573,-16.707982 C 27.978573,-18.946078 27.302383,-21.312744 26.407144,-22.207982 C 24.620698,-23.994428 24.020435,-24.092267 22.144038,-22.902836 C 21.1294,-22.259666 21.309179,-21.926218 22.894038,-21.511768 C 24.578499,-21.071272 24.978573,-20.180983 24.978573,-16.873031 C 24.978573,-13.900924 25.389522,-12.779411 26.478573,-12.779411 C 27.557361,-12.779411 27.978573,-13.882586 27.978573,-16.707982 z M 46.978573,-20.279411 C 46.978573,-26.279411 46.678573,-27.779411 45.478573,-27.779411 C 44.278573,-27.779411 43.978573,-26.279411 43.978573,-20.279411 C 43.978573,-14.279411 44.278573,-12.779411 45.478573,-12.779411 C 46.678573,-12.779411 46.978573,-14.279411 46.978573,-20.279411 z M 82.00091,-14.596415 C 83.84218,-16.087385 84.050705,-16.776114 83.163035,-18.434741 C 82.568056,-19.546469 82.333539,-21.420798 82.641885,-22.599917 C 83.076753,-24.262853 82.601984,-24.972091 80.525445,-25.761591 C 79.053056,-26.321392 76.527669,-26.779411 74.913473,-26.779411 L 71.978573,-26.779411 L 71.978573,-19.779411 L 71.978573,-12.779411 L 75.867789,-12.779411 C 78.136475,-12.779411 80.691979,-13.536507 82.00091,-14.596415 z M 74.978573,-17.279411 C 74.978573,-19.561647 75.344783,-19.870119 77.728573,-19.595833 C 79.706432,-19.368256 80.478573,-18.717854 80.478573,-17.279411 C 80.478573,-15.840968 79.706432,-15.190566 77.728573,-14.962989 C 75.344783,-14.688703 74.978573,-14.997175 74.978573,-17.279411 z M 74.978573,-23.279411 C 74.978573,-24.212744 75.923017,-24.779411 77.478573,-24.779411 C 79.034129,-24.779411 79.978573,-24.212744 79.978573,-23.279411 C 79.978573,-22.346078 79.034129,-21.779411 77.478573,-21.779411 C 75.923017,-21.779411 74.978573,-22.346078 74.978573,-23.279411 z M 111.65122,-15.402557 L 113.36997,-18.025704 L 115.6263,-15.402557 C 118.99876,-11.481837 120.34928,-12.239046 117.82055,-16.632825 L 115.6028,-20.48624 L 117.86244,-23.358907 C 119.35603,-25.257702 119.71964,-26.36572 118.93499,-26.62727 C 118.28209,-26.844903 116.76292,-25.787676 115.55904,-24.277876 L 113.37019,-21.532785 L 111.65132,-24.156098 C 110.70595,-25.59892 109.24494,-26.779411 108.40463,-26.779411 C 107.23479,-26.779411 107.46807,-26.004204 109.40018,-23.471075 L 111.92357,-20.162739 L 109.41502,-16.471075 C 107.4737,-13.614167 107.24859,-12.779411 108.41947,-12.779411 C 109.25161,-12.779411 110.7059,-13.959827 111.65122,-15.402557 z M 58.396786,-14.3864 C 59.266769,-14.720244 59.978573,-15.706252 59.978573,-16.577529 C 59.978573,-17.905884 59.763957,-17.868165 58.649408,-16.343929 C 57.524183,-14.805091 56.970812,-14.713197 55.04285,-15.745011 C 53.199996,-16.731277 52.878319,-17.52814 53.356957,-19.921333 C 53.722049,-21.746791 53.571451,-22.64583 52.963515,-22.270105 C 51.585267,-21.418301 51.732545,-16.425439 53.178573,-14.979411 C 54.510716,-13.647268 56.02283,-13.475428 58.396786,-14.3864 z M 57.978573,-21.470541 C 57.978573,-22.190419 57.542696,-22.779411 57.009958,-22.779411 C 56.477219,-22.779411 56.282898,-22.149929 56.578131,-21.380562 C 56.873365,-20.611194 56.634242,-19.684637 56.046747,-19.321545 C 55.459251,-18.958452 54.992885,-18.125435 55.010376,-17.470394 C 55.053213,-15.866217 57.978573,-19.808633 57.978573,-21.470541 z M 97.309925,-22.553462 C 96.667169,-22.962346 95.951686,-24.867956 95.719963,-26.788149 L 95.298647,-30.279411 L 95.13861,-26.612744 C 95.05059,-24.596078 94.416073,-22.719104 93.728573,-22.441692 C 93.041073,-22.164279 93.828573,-21.90867 95.478573,-21.873671 C 97.14903,-21.838238 97.96065,-22.139509 97.309925,-22.553462 z"
           style="fill:#e5eaf3" />
        <path
           id="path2501"
           d="M -0.0214274,-17.279411 L -0.0214274,-31.779411 L 61.978573,-31.779411 L 123.97857,-31.779411 L 123.97857,-17.279411 L 123.97857,-2.779411 L 61.978573,-2.779411 L -0.0214274,-2.779411 L -0.0214274,-17.279411 z M 100.32677,-8.959432 C 102.88526,-11.258444 104.97857,-13.551477 104.97857,-14.055062 C 104.97857,-14.558646 104.12153,-16.174275 103.07403,-17.645348 C 101.40717,-19.986243 101.34477,-20.559734 102.57403,-22.240849 C 104.38689,-24.72008 104.35189,-25.779411 102.45713,-25.779411 C 99.883673,-25.779411 98.426211,-21.195848 99.795549,-17.409011 C 101.36606,-13.065838 101.40784,-13.221266 98.021643,-10.810079 L 95.064712,-8.704559 L 91.65612,-10.938946 L 88.247528,-13.173332 L 90.109312,-16.226372 C 92.471365,-20.099774 92.463738,-22.030368 90.07785,-24.189566 C 87.765815,-26.28193 86.376588,-24.716205 88.098588,-21.958844 C 89.052911,-20.430731 88.961298,-19.592835 87.632465,-17.695661 C 85.112667,-14.098144 85.539593,-11.057776 88.801406,-9.371028 C 90.353964,-8.568169 92.209064,-7.206613 92.92385,-6.345348 C 94.7495,-4.145574 95.112066,-4.273602 100.32677,-8.959432 z M 34.718494,-9.597512 C 35.760718,-10.259429 40.978573,-21.646904 40.978573,-23.259541 C 40.978573,-23.545469 40.339328,-23.779411 39.558028,-23.779411 C 38.776729,-23.779411 37.842107,-22.434571 37.481092,-20.790879 C 36.526191,-16.443245 35.29421,-16.264535 33.848032,-20.263871 C 33.148852,-22.197418 31.992196,-23.779411 31.277685,-23.779411 C 29.614877,-23.779411 29.612287,-23.799732 31.978573,-18.279411 C 34.36717,-12.707041 34.495678,-10.779411 32.478573,-10.779411 C 31.653573,-10.779411 30.978573,-10.329411 30.978573,-9.779411 C 30.978573,-8.590254 32.979294,-8.492944 34.718494,-9.597512 z M 67.378725,-18.455562 C 68.798209,-22.677445 69.738873,-26.352445 69.469089,-26.622228 C 68.707446,-27.383872 68.43608,-26.802883 65.689135,-18.529411 C 64.273906,-14.266911 63.494409,-10.779411 63.956918,-10.779411 C 64.419427,-10.779411 65.95924,-14.233679 67.378725,-18.455562 z M 96.778573,-11.979411 C 99.62703,-14.827868 96.514256,-20.298804 93.478573,-17.779411 C 92.653573,-17.094722 91.978573,-15.779622 91.978573,-14.856966 C 91.978573,-13.222163 93.775791,-10.779411 94.978573,-10.779411 C 95.308573,-10.779411 96.118573,-11.319411 96.778573,-11.979411 z M 93.978573,-14.779411 C 93.978573,-16.429411 94.428573,-17.779411 94.978573,-17.779411 C 95.528573,-17.779411 95.978573,-16.429411 95.978573,-14.779411 C 95.978573,-13.129411 95.528573,-11.779411 94.978573,-11.779411 C 94.428573,-11.779411 93.978573,-13.129411 93.978573,-14.779411 z M 4.9785726,-15.279411 C 4.9785726,-17.214279 5.4934063,-17.779411 7.2560664,-17.779411 C 10.058858,-17.779411 13.978573,-20.403241 13.978573,-22.279411 C 13.978573,-24.512679 9.8367461,-26.779411 5.7560664,-26.779411 L 1.9785726,-26.779411 L 1.9785726,-19.779411 C 1.9785726,-14.223855 2.2880964,-12.779411 3.4785726,-12.779411 C 4.4119059,-12.779411 4.9785726,-13.723855 4.9785726,-15.279411 z M 4.9785726,-22.279411 C 4.9785726,-24.058398 5.5200689,-24.779411 6.8561279,-24.779411 C 9.5163741,-24.779411 11.267954,-22.468792 9.754779,-20.955617 C 7.6221274,-18.822966 4.9785726,-19.555665 4.9785726,-22.279411 z M 19.978573,-16.156966 C 19.978573,-19.65581 22.112139,-22.432931 23.934768,-21.306484 C 24.508861,-20.951675 24.978573,-18.887935 24.978573,-16.720394 C 24.978573,-13.883965 25.398983,-12.779411 26.478573,-12.779411 C 28.557401,-12.779411 28.501842,-20.113285 26.407144,-22.207982 C 24.548055,-24.067072 24.41439,-24.08302 21.912832,-22.744227 C 20.197965,-21.826459 19.978573,-22.053307 19.978573,-24.744227 C 19.978573,-26.775502 19.482437,-27.779411 18.478573,-27.779411 C 17.278573,-27.779411 16.978573,-26.279411 16.978573,-20.279411 C 16.978573,-14.279411 17.278573,-12.779411 18.478573,-12.779411 C 19.515834,-12.779411 19.978573,-13.821362 19.978573,-16.156966 z M 46.978573,-20.279411 C 46.978573,-26.279411 46.678573,-27.779411 45.478573,-27.779411 C 44.278573,-27.779411 43.978573,-26.279411 43.978573,-20.279411 C 43.978573,-14.279411 44.278573,-12.779411 45.478573,-12.779411 C 46.678573,-12.779411 46.978573,-14.279411 46.978573,-20.279411 z M 83.074659,-14.89286 C 83.560257,-15.655463 83.662309,-16.954411 83.301442,-17.779411 C 82.940574,-18.604411 82.715993,-20.690554 82.802372,-22.415283 C 82.97447,-25.851545 81.428253,-26.739709 75.228573,-26.765756 L 71.978573,-26.779411 L 71.978573,-19.652182 L 71.978573,-12.524952 L 77.085163,-13.015631 C 79.893788,-13.285504 82.589061,-14.130258 83.074659,-14.89286 z M 74.978573,-17.279411 C 74.978573,-19.249605 75.485706,-19.779411 77.371584,-19.779411 C 79.83136,-19.779411 81.016873,-18.233814 80.247932,-16.029411 C 80.008118,-15.341911 78.724406,-14.779411 77.39524,-14.779411 C 75.484129,-14.779411 74.978573,-15.3024 74.978573,-17.279411 z M 74.978573,-23.279411 C 74.978573,-24.212744 75.923017,-24.779411 77.478573,-24.779411 C 79.034129,-24.779411 79.978573,-24.212744 79.978573,-23.279411 C 79.978573,-22.346078 79.034129,-21.779411 77.478573,-21.779411 C 75.923017,-21.779411 74.978573,-22.346078 74.978573,-23.279411 z M 111.75883,-15.452306 L 113.70589,-18.125201 L 115.45724,-15.452306 C 116.42048,-13.982214 117.83184,-12.779411 118.59358,-12.779411 C 120.4576,-12.779411 120.34839,-13.36019 117.84852,-16.741443 L 115.71847,-19.622491 L 117.93008,-23.200951 C 119.76019,-26.162138 119.87285,-26.779411 118.58318,-26.779411 C 117.726,-26.779411 116.28937,-25.657198 115.39067,-24.285605 L 113.75667,-21.791798 L 111.79504,-24.285605 C 110.71614,-25.657198 109.13766,-26.779411 108.2873,-26.779411 C 107.09379,-26.779411 107.32484,-26.014214 109.30044,-23.424067 L 111.85968,-20.068723 L 109.38308,-16.424067 C 107.53686,-13.70711 107.27622,-12.779411 108.35911,-12.779411 C 109.15807,-12.779411 110.68794,-13.982214 111.75883,-15.452306 z M 58.396786,-14.3864 C 59.266769,-14.720244 59.978573,-15.675344 59.978573,-16.508845 C 59.978573,-17.753213 59.705928,-17.798025 58.454407,-16.759355 C 56.606077,-15.225378 55.127014,-16.327852 56.79524,-17.996078 C 59.67407,-20.874908 57.270538,-24.431575 53.691316,-22.58916 C 52.361172,-21.904465 51.963591,-20.660213 52.136824,-17.724288 C 52.333907,-14.384139 52.710317,-13.779411 54.592293,-13.779411 C 55.814781,-13.779411 57.526802,-14.052556 58.396786,-14.3864 z M 53.451552,-18.096628 C 53.038308,-19.113431 53.204614,-20.405452 53.829124,-21.029962 C 55.516256,-22.717094 56.433042,-21.100093 55.241423,-18.538989 C 54.276762,-16.465679 54.129214,-16.429213 53.451552,-18.096628 z M 97.149963,-25.779411 C 96.932922,-28.055308 96.241887,-29.779411 95.54673,-29.779411 C 94.748358,-29.779411 94.48318,-28.701383 94.781525,-26.668624 C 95.07184,-24.690586 94.735672,-23.239618 93.858332,-22.683937 C 92.858809,-22.050867 93.174808,-21.805817 95.004999,-21.794724 C 97.351367,-21.780502 97.504238,-22.06449 97.149963,-25.779411 z"
           style="fill:#dce3f0" />
        <path
           id="path2499"
           d="M -0.0214274,-17.279411 L -0.0214274,-31.779411 L 61.978573,-31.779411 L 123.97857,-31.779411 L 123.97857,-17.279411 L 123.97857,-2.779411 L 61.978573,-2.779411 L -0.0214274,-2.779411 L -0.0214274,-17.279411 z M 103.61861,-17.149239 C 102.11895,-19.933929 102.00212,-20.954895 102.97507,-22.77288 C 104.71298,-26.020177 102.67847,-27.616742 100.5943,-24.641175 C 98.662904,-21.883719 98.563457,-19.784597 100.19461,-16.204596 C 101.30465,-13.768324 101.15617,-13.332757 98.491276,-11.207841 L 95.571894,-8.880008 L 91.869646,-10.960788 L 88.167397,-13.041568 L 90.069247,-16.160489 C 92.334185,-19.874854 92.414983,-21.618272 90.443023,-24.225664 C 88.418286,-26.902841 86.250132,-24.918693 88.050363,-22.036065 C 89.065127,-20.411169 88.990327,-19.63428 87.632465,-17.695661 C 85.133754,-14.128251 85.540778,-11.057164 88.730934,-9.40747 C 90.244732,-8.624655 92.315162,-7.064966 93.331889,-5.941495 C 95.176136,-3.903625 95.19256,-3.9104 100.3157,-8.822834 L 105.45091,-13.746848 L 103.61861,-17.149239 z M 34.718494,-9.597512 C 35.760718,-10.259429 40.978573,-21.646904 40.978573,-23.259541 C 40.978573,-23.545469 40.339328,-23.779411 39.558028,-23.779411 C 38.776729,-23.779411 37.842107,-22.434571 37.481092,-20.790879 C 36.526191,-16.443245 35.29421,-16.264535 33.848032,-20.263871 C 33.148852,-22.197418 31.961871,-23.779411 31.210297,-23.779411 C 29.71277,-23.779411 30.186222,-21.335606 32.605258,-16.579071 C 34.398493,-13.053044 34.348829,-10.779411 32.478573,-10.779411 C 31.653573,-10.779411 30.978573,-10.329411 30.978573,-9.779411 C 30.978573,-8.590254 32.979294,-8.492944 34.718494,-9.597512 z M 67.378725,-18.455562 C 68.798209,-22.677445 69.738873,-26.352445 69.469089,-26.622228 C 68.707446,-27.383872 68.43608,-26.802883 65.689135,-18.529411 C 64.273906,-14.266911 63.494409,-10.779411 63.956918,-10.779411 C 64.419427,-10.779411 65.95924,-14.233679 67.378725,-18.455562 z M 96.778573,-11.979411 C 99.62703,-14.827868 96.514256,-20.298804 93.478573,-17.779411 C 92.653573,-17.094722 91.978573,-15.779622 91.978573,-14.856966 C 91.978573,-13.222163 93.775791,-10.779411 94.978573,-10.779411 C 95.308573,-10.779411 96.118573,-11.319411 96.778573,-11.979411 z M 93.978573,-14.779411 C 93.978573,-16.429411 94.428573,-17.779411 94.978573,-17.779411 C 95.528573,-17.779411 95.978573,-16.429411 95.978573,-14.779411 C 95.978573,-13.129411 95.528573,-11.779411 94.978573,-11.779411 C 94.428573,-11.779411 93.978573,-13.129411 93.978573,-14.779411 z M 4.9785726,-15.279411 C 4.9785726,-17.214279 5.4934063,-17.779411 7.2560664,-17.779411 C 10.058858,-17.779411 13.978573,-20.403241 13.978573,-22.279411 C 13.978573,-24.512679 9.8367461,-26.779411 5.7560664,-26.779411 L 1.9785726,-26.779411 L 1.9785726,-19.779411 C 1.9785726,-14.223855 2.2880964,-12.779411 3.4785726,-12.779411 C 4.4119059,-12.779411 4.9785726,-13.723855 4.9785726,-15.279411 z M 5.6452393,-20.446078 C 3.2641945,-22.827122 6.8827569,-25.933747 9.5036387,-23.758608 C 10.643691,-22.812449 10.731161,-22.186224 9.8684591,-21.146732 C 8.6520193,-19.681012 6.7292951,-19.362022 5.6452393,-20.446078 z M 19.978573,-16.156966 C 19.978573,-20.12662 22.570751,-23.036199 24.039476,-20.715109 C 24.539135,-19.925475 24.954838,-17.816911 24.96326,-16.029411 C 24.973698,-13.813994 25.456073,-12.779411 26.478573,-12.779411 C 28.277915,-12.779411 28.562697,-18.819448 26.909039,-21.909336 C 26.066377,-23.483865 25.217892,-23.771248 22.909039,-23.264139 C 20.259454,-22.682192 19.978573,-22.867737 19.978573,-25.199956 C 19.978573,-26.826138 19.424228,-27.779411 18.478573,-27.779411 C 17.278573,-27.779411 16.978573,-26.279411 16.978573,-20.279411 C 16.978573,-14.279411 17.278573,-12.779411 18.478573,-12.779411 C 19.515834,-12.779411 19.978573,-13.821362 19.978573,-16.156966 z M 46.978573,-20.279411 C 46.978573,-26.279411 46.678573,-27.779411 45.478573,-27.779411 C 44.278573,-27.779411 43.978573,-26.279411 43.978573,-20.279411 C 43.978573,-14.279411 44.278573,-12.779411 45.478573,-12.779411 C 46.678573,-12.779411 46.978573,-14.279411 46.978573,-20.279411 z M 82.407144,-14.35084 C 84.180508,-16.124203 84.456462,-18.366025 83.011328,-19.259167 C 82.479343,-19.587952 82.297822,-21.125656 82.607948,-22.676286 C 83.232743,-25.800259 81.538358,-26.739246 75.228573,-26.765756 L 71.978573,-26.779411 L 71.978573,-19.779411 L 71.978573,-12.779411 L 76.407144,-12.779411 C 79.099785,-12.779411 81.451691,-13.395386 82.407144,-14.35084 z M 75.64524,-15.446078 C 73.264195,-17.827122 76.882757,-20.933747 79.503639,-18.758608 C 80.643691,-17.812449 80.731161,-17.186224 79.868459,-16.146732 C 78.65202,-14.681012 76.729295,-14.362022 75.64524,-15.446078 z M 75.228573,-23.029411 C 75.45774,-23.716911 76.47024,-24.279411 77.478573,-24.279411 C 78.486906,-24.279411 79.499406,-23.716911 79.728573,-23.029411 C 79.992462,-22.237744 79.167462,-21.779411 77.478573,-21.779411 C 75.789684,-21.779411 74.964684,-22.237744 75.228573,-23.029411 z M 111.84521,-15.336996 L 113.857,-17.89458 L 115.5328,-15.336996 C 116.45448,-13.930324 117.83184,-12.779411 118.59358,-12.779411 C 120.45878,-12.779411 120.34501,-13.456052 117.90327,-16.885164 L 115.82796,-19.799658 L 117.98483,-23.289535 C 119.74689,-26.140616 119.86258,-26.779411 118.61683,-26.779411 C 117.77816,-26.779411 116.36806,-25.766911 115.48328,-24.529411 L 113.87459,-22.279411 L 112.01629,-24.529411 C 110.99422,-25.766911 109.41197,-26.779411 108.50018,-26.779411 C 107.05063,-26.779411 107.10216,-26.414579 108.91048,-23.875041 C 111.15306,-20.725624 111.55553,-18.254024 109.98395,-17.282734 C 109.43691,-16.944644 108.52107,-15.793086 107.94876,-14.723717 C 106.34774,-11.732183 109.38579,-12.210355 111.84521,-15.336996 z M 58.396786,-14.3864 C 59.266769,-14.720244 59.978573,-15.675344 59.978573,-16.508845 C 59.978573,-17.753213 59.705928,-17.798025 58.454407,-16.759355 C 56.606077,-15.225378 55.127014,-16.327852 56.79524,-17.996078 C 58.490629,-19.691467 58.254291,-22.45963 56.351825,-23.189675 C 53.790449,-24.172567 51.978573,-21.880318 51.978573,-17.656966 C 51.978573,-14.222546 52.254931,-13.779411 54.396786,-13.779411 C 55.726802,-13.779411 57.526802,-14.052556 58.396786,-14.3864 z M 52.978573,-19.220394 C 52.978573,-20.721558 54.773908,-22.317409 55.568643,-21.522675 C 56.26612,-20.825197 54.885272,-17.779411 53.871584,-17.779411 C 53.380428,-17.779411 52.978573,-18.427853 52.978573,-19.220394 z M 97.149963,-25.779411 C 96.932922,-28.055308 96.241887,-29.779411 95.54673,-29.779411 C 94.748358,-29.779411 94.48318,-28.701383 94.781525,-26.668624 C 95.07184,-24.690586 94.735672,-23.239618 93.858332,-22.683937 C 92.858809,-22.050867 93.174808,-21.805817 95.004999,-21.794724 C 97.351367,-21.780502 97.504238,-22.06449 97.149963,-25.779411 z"
           style="fill:#d3dbec" />
        <path
           id="path2497"
           d="M -0.0214274,-17.279411 L -0.0214274,-31.779411 L 61.978573,-31.779411 L 123.97857,-31.779411 L 123.97857,-17.279411 L 123.97857,-2.779411 L 61.978573,-2.779411 L -0.0214274,-2.779411 L -0.0214274,-17.279411 z M 104.97857,-14.64554 C 104.97857,-15.457554 104.22987,-16.949235 103.31479,-17.960386 C 101.87556,-19.550719 101.83234,-20.137666 102.99458,-22.309333 C 104.90293,-25.875108 102.79247,-27.970321 100.65067,-24.636313 C 98.550449,-21.367026 98.418265,-19.721926 99.994303,-16.46747 C 101.27624,-13.820329 101.18381,-13.517601 98.41731,-11.302137 L 95.478573,-8.948745 L 91.773585,-11.022921 L 88.068597,-13.097097 L 90.023585,-15.842624 C 92.343716,-19.100947 92.502705,-21.687008 90.545894,-24.338281 C 88.531682,-27.067326 86.232769,-24.946496 88.050363,-22.036065 C 89.065127,-20.411169 88.990327,-19.63428 87.632465,-17.695661 C 85.133754,-14.128251 85.540778,-11.057164 88.730934,-9.40747 C 90.244732,-8.624655 92.328226,-7.05053 93.360921,-5.909415 L 95.238549,-3.83466 L 100.10856,-8.501905 C 102.78706,-11.06889 104.97857,-13.833525 104.97857,-14.64554 z M 35.681276,-10.029411 C 36.803368,-11.509597 40.978573,-21.663955 40.978573,-22.912764 C 40.978573,-25.316327 38.206796,-23.308652 36.997844,-20.029411 L 35.615338,-16.279411 L 34.161259,-20.029411 C 33.361516,-22.091911 32.062919,-23.779411 31.275489,-23.779411 C 29.708506,-23.779411 30.144783,-21.417087 32.605258,-16.579071 C 34.398493,-13.053044 34.348829,-10.779411 32.478573,-10.779411 C 31.653573,-10.779411 30.978573,-10.329411 30.978573,-9.779411 C 30.978573,-8.351096 34.553039,-8.541118 35.681276,-10.029411 z M 67.378725,-18.455562 C 68.798209,-22.677445 69.738873,-26.352445 69.469089,-26.622228 C 68.707446,-27.383872 68.43608,-26.802883 65.689135,-18.529411 C 64.273906,-14.266911 63.494409,-10.779411 63.956918,-10.779411 C 64.419427,-10.779411 65.95924,-14.233679 67.378725,-18.455562 z M 96.778573,-11.979411 C 99.62703,-14.827868 96.514256,-20.298804 93.478573,-17.779411 C 92.653573,-17.094722 91.978573,-15.779622 91.978573,-14.856966 C 91.978573,-13.222163 93.775791,-10.779411 94.978573,-10.779411 C 95.308573,-10.779411 96.118573,-11.319411 96.778573,-11.979411 z M 93.978573,-14.779411 C 93.978573,-16.429411 94.428573,-17.779411 94.978573,-17.779411 C 95.528573,-17.779411 95.978573,-16.429411 95.978573,-14.779411 C 95.978573,-13.129411 95.528573,-11.779411 94.978573,-11.779411 C 94.428573,-11.779411 93.978573,-13.129411 93.978573,-14.779411 z M 4.9785726,-15.279411 C 4.9785726,-17.376972 5.4500012,-17.779411 7.907144,-17.779411 C 10.992167,-17.779411 13.978573,-19.992865 13.978573,-22.279411 C 13.978573,-24.943364 10.88935,-26.779411 6.407144,-26.779411 L 1.9785726,-26.779411 L 1.9785726,-19.779411 C 1.9785726,-14.223855 2.2880964,-12.779411 3.4785726,-12.779411 C 4.4119059,-12.779411 4.9785726,-13.723855 4.9785726,-15.279411 z M 5.6452393,-20.446078 C 3.2641945,-22.827122 6.8827569,-25.933747 9.5036387,-23.758608 C 10.643691,-22.812449 10.731161,-22.186224 9.8684591,-21.146732 C 8.6520193,-19.681012 6.7292951,-19.362022 5.6452393,-20.446078 z M 19.978573,-15.588281 C 19.978573,-17.13316 20.645022,-19.27066 21.45957,-20.338281 C 22.741451,-22.018432 23.07551,-22.077741 23.944257,-20.779411 C 24.496287,-19.954411 24.954838,-17.816911 24.96326,-16.029411 C 24.973698,-13.813994 25.456073,-12.779411 26.478573,-12.779411 C 27.583468,-12.779411 27.978573,-13.932473 27.978573,-17.156966 C 27.978573,-22.26438 26.297466,-24.148536 22.574226,-23.214062 C 20.276924,-22.637476 19.978573,-22.862412 19.978573,-25.171003 C 19.978573,-26.822921 19.428531,-27.779411 18.478573,-27.779411 C 17.278573,-27.779411 16.978573,-26.279411 16.978573,-20.279411 C 16.978573,-14.279411 17.278573,-12.779411 18.478573,-12.779411 C 19.455891,-12.779411 19.978573,-13.758174 19.978573,-15.588281 z M 46.978573,-20.279411 C 46.978573,-26.279411 46.678573,-27.779411 45.478573,-27.779411 C 44.278573,-27.779411 43.978573,-26.279411 43.978573,-20.279411 C 43.978573,-14.279411 44.278573,-12.779411 45.478573,-12.779411 C 46.678573,-12.779411 46.978573,-14.279411 46.978573,-20.279411 z M 82.407144,-14.35084 C 84.196929,-16.140624 84.45339,-18.367924 82.974903,-19.281679 C 82.422884,-19.622846 82.25879,-21.047704 82.61025,-22.44803 C 83.417821,-25.66565 81.823476,-26.74394 76.228573,-26.764098 L 71.978573,-26.779411 L 71.978573,-19.779411 L 71.978573,-12.779411 L 76.407144,-12.779411 C 79.099785,-12.779411 81.451691,-13.395386 82.407144,-14.35084 z M 75.64524,-15.446078 C 73.264195,-17.827122 76.882757,-20.933747 79.503639,-18.758608 C 80.643691,-17.812449 80.731161,-17.186224 79.868459,-16.146732 C 78.65202,-14.681012 76.729295,-14.362022 75.64524,-15.446078 z M 75.228573,-23.029411 C 75.45774,-23.716911 76.47024,-24.279411 77.478573,-24.279411 C 78.486906,-24.279411 79.499406,-23.716911 79.728573,-23.029411 C 79.992462,-22.237744 79.167462,-21.779411 77.478573,-21.779411 C 75.789684,-21.779411 74.964684,-22.237744 75.228573,-23.029411 z M 111.84521,-15.336996 L 113.857,-17.89458 L 115.5328,-15.336996 C 116.45448,-13.930324 117.83184,-12.779411 118.59358,-12.779411 C 120.46573,-12.779411 120.34577,-13.454992 117.85162,-16.957695 L 115.72467,-19.94472 L 117.85162,-22.821573 C 120.36336,-26.218882 120.46018,-26.779411 118.53527,-26.779411 C 117.74146,-26.779411 116.36806,-25.766911 115.48328,-24.529411 L 113.87459,-22.279411 L 112.01629,-24.529411 C 110.99422,-25.766911 109.41197,-26.779411 108.50018,-26.779411 C 107.08125,-26.779411 107.16645,-26.324305 109.09147,-23.620856 L 111.34056,-20.462301 L 109.12971,-16.620856 C 107.39171,-13.601029 107.23054,-12.779411 108.37613,-12.779411 C 109.17763,-12.779411 110.73872,-13.930324 111.84521,-15.336996 z M 59.817321,-16.279411 C 60.104738,-17.896924 59.924647,-18.040357 58.875638,-17.029411 C 56.710993,-14.943311 56.09116,-15.61743 57.279403,-18.765445 C 58.639839,-22.369651 57.265092,-24.322512 54.079236,-23.31136 C 52.355643,-22.764313 51.978573,-21.838145 51.978573,-18.151658 L 51.978573,-13.65868 L 55.720256,-13.969046 C 58.541407,-14.203055 59.549371,-14.771453 59.817321,-16.279411 z M 52.993886,-18.529411 C 53.02183,-19.898081 54.860189,-22.231129 55.447739,-21.643579 C 56.23549,-20.855828 54.980651,-17.779411 53.871584,-17.779411 C 53.380428,-17.779411 52.985464,-18.116911 52.993886,-18.529411 z M 97.149963,-25.779411 C 96.851925,-28.904638 96.354086,-29.779411 94.873538,-29.779411 C 93.831307,-29.779411 92.978573,-29.302853 92.978573,-28.720394 C 92.978573,-28.137935 93.428573,-27.939492 93.978573,-28.279411 C 94.559665,-28.638545 94.978573,-27.650906 94.978573,-25.921761 C 94.978573,-24.285135 94.416073,-22.719104 93.728573,-22.441692 C 93.041073,-22.164279 93.615465,-21.901779 95.004999,-21.858358 C 97.359542,-21.784782 97.505472,-22.051547 97.149963,-25.779411 z"
           style="fill:#c1cde4" />
        <path
           id="path2495"
           d="M -0.0214274,-17.279411 L -0.0214274,-31.779411 L 61.978573,-31.779411 L 123.97857,-31.779411 L 123.97857,-17.279411 L 123.97857,-2.779411 L 61.978573,-2.779411 L -0.0214274,-2.779411 L -0.0214274,-17.279411 z M 104.97857,-14.663078 C 104.97857,-15.465447 104.22987,-16.949235 103.31479,-17.960386 C 101.87556,-19.550719 101.83234,-20.137666 102.99458,-22.309333 C 104.74387,-25.577904 103.05632,-27.638768 100.74789,-25.05304 C 98.522986,-22.560875 98.236581,-19.534808 99.926697,-16.376552 C 101.30087,-13.808682 101.22499,-13.551027 98.440705,-11.330915 L 95.506588,-8.991332 L 91.831787,-11.106279 L 88.156985,-13.221227 L 90.067779,-15.904689 C 91.118716,-17.380594 91.978573,-19.335769 91.978573,-20.249523 C 91.978573,-22.801996 90.075151,-25.779411 88.443389,-25.779411 C 86.726278,-25.779411 86.506965,-23.651019 88.063671,-22.094313 C 88.843802,-21.314182 88.703277,-20.147727 87.563671,-17.943973 C 85.243453,-13.457165 85.57397,-11.039999 88.730934,-9.40747 C 90.244732,-8.624655 92.352342,-7.023883 93.414511,-5.850199 L 95.345728,-3.716228 L 100.16215,-8.460228 C 102.81118,-11.069428 104.97857,-13.86071 104.97857,-14.663078 z M 35.681276,-10.029411 C 36.803368,-11.509597 40.978573,-21.663955 40.978573,-22.912764 C 40.978573,-23.38942 40.338471,-23.779411 39.556125,-23.779411 C 38.773779,-23.779411 37.566041,-22.091911 36.872263,-20.029411 L 35.610849,-16.279411 L 34.159015,-20.029411 C 33.360506,-22.091911 32.093244,-23.779411 31.342877,-23.779411 C 29.460104,-23.779411 29.622327,-22.566175 32.220036,-17.219308 C 34.332133,-12.871976 34.36099,-12.53221 32.720036,-11.332314 C 31.762231,-10.631951 30.978573,-9.771035 30.978573,-9.419168 C 30.978573,-8.265618 34.711391,-8.750004 35.681276,-10.029411 z M 67.542241,-18.772522 C 69.658751,-25.4481 69.963996,-28.098168 68.440977,-26.575149 C 67.259441,-25.393612 63.232042,-10.697234 64.176019,-11.011893 C 64.733017,-11.197559 66.247817,-14.689842 67.542241,-18.772522 z M 96.778573,-11.979411 C 99.62703,-14.827868 96.514256,-20.298804 93.478573,-17.779411 C 92.653573,-17.094722 91.978573,-15.779622 91.978573,-14.856966 C 91.978573,-13.222163 93.775791,-10.779411 94.978573,-10.779411 C 95.308573,-10.779411 96.118573,-11.319411 96.778573,-11.979411 z M 93.978573,-14.779411 C 93.978573,-16.429411 94.428573,-17.779411 94.978573,-17.779411 C 95.528573,-17.779411 95.978573,-16.429411 95.978573,-14.779411 C 95.978573,-13.129411 95.528573,-11.779411 94.978573,-11.779411 C 94.428573,-11.779411 93.978573,-13.129411 93.978573,-14.779411 z M 5.9785726,-15.279411 C 5.9785726,-17.259803 6.4833345,-17.779411 8.407144,-17.779411 C 11.062725,-17.779411 13.978573,-20.134519 13.978573,-22.279411 C 13.978573,-24.943364 10.88935,-26.779411 6.407144,-26.779411 L 1.9785726,-26.779411 L 1.9785726,-19.779411 C 1.9785726,-13.446078 2.1690488,-12.779411 3.9785726,-12.779411 C 5.4452393,-12.779411 5.9785726,-13.446078 5.9785726,-15.279411 z M 5.9785726,-22.279411 C 5.9785726,-24.26175 6.417823,-24.841467 7.7285726,-24.58904 C 8.6910726,-24.40368 9.4785726,-23.364346 9.4785726,-22.279411 C 9.4785726,-21.194476 8.6910726,-20.155142 7.7285726,-19.969782 C 6.417823,-19.717355 5.9785726,-20.297072 5.9785726,-22.279411 z M 21.171075,-17.029411 C 21.340199,-19.366911 21.928573,-21.279411 22.478573,-21.279411 C 23.028573,-21.279411 23.616947,-19.366911 23.786071,-17.029411 C 24.034664,-13.593544 24.465676,-12.779411 26.036071,-12.779411 C 27.66358,-12.779411 27.978573,-13.489269 27.978573,-17.156966 C 27.978573,-22.019397 26.162635,-24.322313 22.983899,-23.491055 C 21.387074,-23.073476 20.978573,-23.456849 20.978573,-25.373031 C 20.978573,-27.112744 20.42449,-27.779411 18.978573,-27.779411 C 17.156351,-27.779411 16.978573,-27.112744 16.978573,-20.279411 C 16.978573,-13.520077 17.170406,-12.779411 18.921075,-12.779411 C 20.49147,-12.779411 20.922482,-13.593544 21.171075,-17.029411 z M 47.978573,-20.279411 C 47.978573,-27.112744 47.800795,-27.779411 45.978573,-27.779411 C 44.156351,-27.779411 43.978573,-27.112744 43.978573,-20.279411 C 43.978573,-13.446078 44.156351,-12.779411 45.978573,-12.779411 C 47.800795,-12.779411 47.978573,-13.446078 47.978573,-20.279411 z M 82.044314,-13.814595 C 84.093694,-14.91139 84.660288,-18.240054 82.974903,-19.281679 C 82.422884,-19.622846 82.25879,-21.047704 82.61025,-22.44803 C 83.417821,-25.66565 81.823476,-26.74394 76.228573,-26.764098 L 71.978573,-26.779411 L 71.978573,-19.779411 L 71.978573,-12.779411 L 76.044314,-12.779411 C 78.280472,-12.779411 80.980472,-13.245244 82.044314,-13.814595 z M 75.978573,-17.279411 C 75.978573,-19.26175 76.417823,-19.841467 77.728573,-19.58904 C 78.691073,-19.40368 79.478573,-18.364346 79.478573,-17.279411 C 79.478573,-16.194476 78.691073,-15.155142 77.728573,-14.969782 C 76.417823,-14.717355 75.978573,-15.297072 75.978573,-17.279411 z M 75.978573,-23.352735 C 75.978573,-24.283974 76.658943,-24.794108 77.645707,-24.602735 C 80.154476,-24.116184 80.498951,-21.779411 78.061906,-21.779411 C 76.833569,-21.779411 75.978573,-22.4251 75.978573,-23.352735 z M 112.01809,-15.353249 L 113.39556,-17.927086 L 115.27047,-15.353249 C 116.30167,-13.937638 118.03075,-12.779411 119.11287,-12.779411 C 120.93949,-12.779411 120.8911,-13.027536 118.43694,-16.245105 L 115.79353,-19.710799 L 117.88605,-22.649475 C 120.36074,-26.124866 120.46364,-26.779411 118.53527,-26.779411 C 117.74146,-26.779411 116.36806,-25.766911 115.48328,-24.529411 L 113.87459,-22.279411 L 111.95282,-24.607789 C 110.89585,-25.888396 109.30131,-26.788396 108.40941,-26.607789 C 107.01861,-26.326157 107.1128,-25.867072 109.07105,-23.382825 L 111.35434,-20.48624 L 109.13659,-16.632825 C 107.0477,-13.003286 107.02696,-12.779411 108.77973,-12.779411 C 109.80321,-12.779411 111.26047,-13.937638 112.01809,-15.353249 z M 59.817321,-16.279411 C 60.104738,-17.896924 59.924647,-18.040357 58.875638,-17.029411 C 57.074656,-15.293779 55.464727,-15.455338 56.932892,-17.224369 C 58.793527,-19.466297 57.82587,-23.229969 55.296234,-23.590095 C 52.512327,-23.986421 51.062294,-21.305057 51.719601,-16.976277 C 52.191719,-13.867088 52.433741,-13.690942 55.841554,-13.976277 C 58.544159,-14.202565 59.55203,-14.786418 59.817321,-16.279411 z M 52.978573,-18.656966 C 52.978573,-19.139622 53.653573,-20.094722 54.478573,-20.779411 C 56.106782,-22.130705 56.31031,-21.807478 55.371584,-19.361198 C 54.729031,-17.686731 52.978573,-17.171594 52.978573,-18.656966 z M 97.149963,-25.779411 C 96.851925,-28.904638 96.354086,-29.779411 94.873538,-29.779411 C 93.831307,-29.779411 92.978573,-29.302853 92.978573,-28.720394 C 92.978573,-28.137935 93.428573,-27.939492 93.978573,-28.279411 C 94.559665,-28.638545 94.978573,-27.650906 94.978573,-25.921761 C 94.978573,-24.285135 94.416073,-22.719104 93.728573,-22.441692 C 93.041073,-22.164279 93.615465,-21.901779 95.004999,-21.858358 C 97.359542,-21.784782 97.505472,-22.051547 97.149963,-25.779411 z"
           style="fill:#bac7e1" />
        <path
           id="path2493"
           d="M -0.0214274,-17.279411 L -0.0214274,-31.779411 L 61.978573,-31.779411 L 123.97857,-31.779411 L 123.97857,-17.279411 L 123.97857,-2.779411 L 61.978573,-2.779411 L -0.0214274,-2.779411 L -0.0214274,-17.279411 z M 103.22529,-10.987598 C 105.42761,-13.133271 105.45915,-15.590894 103.31479,-17.960386 C 101.87556,-19.550719 101.83234,-20.137666 102.99458,-22.309333 C 104.74387,-25.577904 103.05632,-27.638768 100.74789,-25.05304 C 98.522986,-22.560875 98.236581,-19.534808 99.926697,-16.376552 C 101.30136,-13.807764 101.2253,-13.551274 98.427192,-11.32014 C 96.805996,-10.027443 95.02934,-9.253891 94.479068,-9.601136 C 93.928796,-9.94838 94.265766,-10.388483 95.227891,-10.579143 C 97.70982,-11.070975 98.632671,-15.553884 96.658412,-17.528144 C 94.301409,-19.885146 91.606324,-17.390657 92.372254,-13.561007 C 92.886863,-10.987963 92.758298,-10.826931 90.958457,-11.790177 C 88.561954,-13.072746 88.550122,-13.245518 90.618947,-16.747758 C 92.479871,-19.898052 91.836108,-24.513113 89.405646,-25.445769 C 87.174107,-26.302091 86.380316,-24.967019 87.784314,-22.718861 C 88.779193,-21.125807 88.724162,-20.188114 87.496459,-17.813999 C 85.242989,-13.456268 85.59977,-11.026658 88.730934,-9.40747 C 90.244732,-8.624655 92.347897,-7.028794 93.404633,-5.861114 L 95.325972,-3.738058 L 98.398992,-6.508735 C 100.08915,-8.032607 102.26099,-10.048095 103.22529,-10.987598 z M 93.978573,-14.779411 C 93.978573,-16.429411 94.428573,-17.779411 94.978573,-17.779411 C 95.528573,-17.779411 95.978573,-16.429411 95.978573,-14.779411 C 95.978573,-13.129411 95.528573,-11.779411 94.978573,-11.779411 C 94.428573,-11.779411 93.978573,-13.129411 93.978573,-14.779411 z M 35.767587,-10.029411 C 36.822943,-11.305348 40.977155,-21.669985 40.978069,-23.029411 C 40.978346,-23.441911 40.338471,-23.779411 39.556125,-23.779411 C 38.773779,-23.779411 37.566041,-22.091911 36.872263,-20.029411 L 35.610849,-16.279411 L 34.159015,-20.029411 C 33.360506,-22.091911 32.093244,-23.779411 31.342877,-23.779411 C 29.506313,-23.779411 29.612892,-22.860329 32.101974,-17.233347 C 34.042733,-12.84594 34.08574,-12.330942 32.601974,-11.245986 C 31.709104,-10.593103 30.978573,-9.771035 30.978573,-9.419168 C 30.978573,-8.271649 34.706626,-8.746698 35.767587,-10.029411 z M 67.618178,-18.809112 C 69.68157,-25.566507 69.933516,-28.067688 68.39592,-26.530091 C 67.064555,-25.198726 63.156617,-10.672092 64.225687,-11.028449 C 64.848201,-11.235954 66.374822,-14.737252 67.618178,-18.809112 z M 5.9785726,-15.279411 C 5.9785726,-17.259803 6.4833345,-17.779411 8.407144,-17.779411 C 11.062725,-17.779411 13.978573,-20.134519 13.978573,-22.279411 C 13.978573,-24.943364 10.88935,-26.779411 6.407144,-26.779411 L 1.9785726,-26.779411 L 1.9785726,-19.779411 C 1.9785726,-13.446078 2.1690488,-12.779411 3.9785726,-12.779411 C 5.4452393,-12.779411 5.9785726,-13.446078 5.9785726,-15.279411 z M 5.9785726,-22.279411 C 5.9785726,-24.26175 6.417823,-24.841467 7.7285726,-24.58904 C 8.6910726,-24.40368 9.4785726,-23.364346 9.4785726,-22.279411 C 9.4785726,-21.194476 8.6910726,-20.155142 7.7285726,-19.969782 C 6.417823,-19.717355 5.9785726,-20.297072 5.9785726,-22.279411 z M 21.171075,-17.029411 C 21.340199,-19.366911 21.928573,-21.279411 22.478573,-21.279411 C 23.028573,-21.279411 23.616947,-19.366911 23.786071,-17.029411 C 24.034664,-13.593544 24.465676,-12.779411 26.036071,-12.779411 C 27.66358,-12.779411 27.978573,-13.489269 27.978573,-17.156966 C 27.978573,-22.019397 26.162635,-24.322313 22.983899,-23.491055 C 21.387074,-23.073476 20.978573,-23.456849 20.978573,-25.373031 C 20.978573,-27.112744 20.42449,-27.779411 18.978573,-27.779411 C 17.156351,-27.779411 16.978573,-27.112744 16.978573,-20.279411 C 16.978573,-13.520077 17.170406,-12.779411 18.921075,-12.779411 C 20.49147,-12.779411 20.922482,-13.593544 21.171075,-17.029411 z M 47.978573,-20.279411 C 47.978573,-27.112744 47.800795,-27.779411 45.978573,-27.779411 C 44.156351,-27.779411 43.978573,-27.112744 43.978573,-20.279411 C 43.978573,-13.446078 44.156351,-12.779411 45.978573,-12.779411 C 47.800795,-12.779411 47.978573,-13.446078 47.978573,-20.279411 z M 82.044314,-13.814595 C 84.093158,-14.911103 84.660435,-18.239963 82.975869,-19.281082 C 82.306456,-19.694802 82.305797,-20.522317 82.973886,-21.770653 C 84.510494,-24.641831 81.708016,-26.779411 76.407144,-26.779411 L 71.978573,-26.779411 L 71.978573,-19.779411 L 71.978573,-12.779411 L 76.044314,-12.779411 C 78.280472,-12.779411 80.980472,-13.245244 82.044314,-13.814595 z M 75.978573,-17.279411 C 75.978573,-19.26175 76.417823,-19.841467 77.728573,-19.58904 C 78.691073,-19.40368 79.478573,-18.364346 79.478573,-17.279411 C 79.478573,-16.194476 78.691073,-15.155142 77.728573,-14.969782 C 76.417823,-14.717355 75.978573,-15.297072 75.978573,-17.279411 z M 75.978573,-23.352735 C 75.978573,-24.283974 76.658943,-24.794108 77.645707,-24.602735 C 80.154476,-24.116184 80.498951,-21.779411 78.061906,-21.779411 C 76.833569,-21.779411 75.978573,-22.4251 75.978573,-23.352735 z M 112.01629,-15.029411 L 113.87459,-17.279411 L 115.48328,-15.029411 C 116.36806,-13.791911 117.98936,-12.779411 119.08617,-12.779411 C 120.95353,-12.779411 120.91224,-12.999818 118.43694,-16.245105 L 115.79353,-19.710799 L 117.88605,-22.649475 C 119.03693,-24.265747 119.97857,-25.856185 119.97857,-26.183781 C 119.97857,-27.547476 117.15416,-26.630918 115.4069,-24.700213 L 113.52525,-22.621016 L 111.77815,-24.778591 C 110.81725,-25.965257 109.30131,-26.788396 108.40941,-26.607789 C 107.01861,-26.326157 107.1128,-25.867072 109.07105,-23.382825 L 111.35434,-20.48624 L 109.13659,-16.632825 C 107.23421,-13.32736 107.14915,-12.779411 108.53842,-12.779411 C 109.42918,-12.779411 110.99422,-13.791911 112.01629,-15.029411 z M 59.817321,-16.279411 C 60.104738,-17.896924 59.924647,-18.040357 58.875638,-17.029411 C 57.074656,-15.293779 55.464727,-15.455338 56.932892,-17.224369 C 58.793527,-19.466297 57.82587,-23.229969 55.296234,-23.590095 C 52.512327,-23.986421 51.062294,-21.305057 51.719601,-16.976277 C 52.191719,-13.867088 52.433741,-13.690942 55.841554,-13.976277 C 58.544159,-14.202565 59.55203,-14.786418 59.817321,-16.279411 z M 52.978573,-18.534522 C 52.978573,-19.084522 53.653573,-20.094722 54.478573,-20.779411 C 55.315313,-21.473844 55.978573,-21.582127 55.978573,-21.0243 C 55.978573,-20.4743 55.303573,-19.4641 54.478573,-18.779411 C 53.641833,-18.084978 52.978573,-17.976695 52.978573,-18.534522 z M 97.149963,-25.779411 C 96.851925,-28.904638 96.354086,-29.779411 94.873538,-29.779411 C 93.831307,-29.779411 92.978573,-29.302853 92.978573,-28.720394 C 92.978573,-28.137935 93.428573,-27.939492 93.978573,-28.279411 C 94.559665,-28.638545 94.978573,-27.650906 94.978573,-25.921761 C 94.978573,-24.285135 94.416073,-22.719104 93.728573,-22.441692 C 93.041073,-22.164279 93.615465,-21.901779 95.004999,-21.858358 C 97.359542,-21.784782 97.505472,-22.051547 97.149963,-25.779411 z"
           style="fill:#b2c0de" />
        <path
           id="path2491"
           d="M -0.0214274,-17.279411 L -0.0214274,-31.779411 L 61.978573,-31.779411 L 123.97857,-31.779411 L 123.97857,-17.279411 L 123.97857,-2.779411 L 61.978573,-2.779411 L -0.0214274,-2.779411 L -0.0214274,-17.279411 z M 103.22529,-10.987598 C 105.42761,-13.133271 105.45915,-15.590894 103.31479,-17.960386 C 101.87556,-19.550719 101.83234,-20.137666 102.99458,-22.309333 C 104.74387,-25.577904 103.05632,-27.638768 100.74789,-25.05304 C 98.517051,-22.554227 98.237603,-19.532898 99.942633,-16.346776 C 101.31716,-13.778239 101.25601,-13.495157 98.942633,-11.717414 C 97.5874,-10.675972 95.803573,-9.866077 94.978573,-9.917648 C 93.873966,-9.986698 93.927479,-10.129577 95.181585,-10.459688 C 98.746003,-11.397928 98.565885,-18.779411 94.978573,-18.779411 C 92.764028,-18.779411 91.559269,-15.675881 92.555431,-12.537253 C 93.213663,-10.463348 93.124919,-10.404594 91.372819,-11.754285 C 90.330984,-12.55684 89.352022,-13.279862 89.19735,-13.361 C 89.042677,-13.442139 89.704908,-14.882898 90.668976,-16.562689 C 92.707835,-20.115196 91.64091,-25.028175 88.707908,-25.59302 C 86.765982,-25.967001 86.181008,-22.211933 88.082456,-21.578117 C 88.795812,-21.340331 88.493051,-19.975813 87.22666,-17.72111 C 84.924354,-13.622046 85.683172,-10.225167 89.201729,-8.879629 C 90.453993,-8.400749 92.344238,-7.047989 93.402273,-5.873498 L 95.325972,-3.738058 L 98.398992,-6.508735 C 100.08915,-8.032607 102.26099,-10.048095 103.22529,-10.987598 z M 93.978573,-14.779411 C 93.978573,-15.879411 94.428573,-16.779411 94.978573,-16.779411 C 95.528573,-16.779411 95.978573,-15.879411 95.978573,-14.779411 C 95.978573,-13.679411 95.528573,-12.779411 94.978573,-12.779411 C 94.428573,-12.779411 93.978573,-13.679411 93.978573,-14.779411 z M 37.664845,-13.851409 C 40.895544,-20.607542 41.534418,-23.779411 39.664533,-23.779411 C 38.787178,-23.779411 37.614792,-22.207172 36.918164,-20.096371 L 35.702651,-16.41333 L 34.233658,-20.096371 C 33.286357,-22.471432 32.112024,-23.779411 30.926943,-23.779411 C 29.231958,-23.779411 29.290385,-23.340011 31.679168,-18.12222 C 34.047691,-12.948684 34.128455,-12.362176 32.623844,-11.261978 C 30.316565,-9.574854 30.577035,-8.583282 33.228573,-8.95986 C 34.769333,-9.178683 36.167725,-10.720586 37.664845,-13.851409 z M 66.994079,-16.337519 C 69.528905,-23.852768 70.113308,-26.779411 69.079156,-26.779411 C 68.563519,-26.779411 67.139099,-23.741911 65.913779,-20.029411 C 64.688459,-16.316911 63.455063,-12.655509 63.172899,-11.892961 C 62.860745,-11.049366 63.182065,-10.680575 63.993549,-10.95107 C 64.72707,-11.195577 66.077309,-13.619479 66.994079,-16.337519 z M 5.9785726,-15.279411 C 5.9785726,-17.139265 6.5075232,-17.779411 8.0443141,-17.779411 C 11.467736,-17.779411 13.978573,-19.683401 13.978573,-22.279411 C 13.978573,-25.29925 11.368799,-26.779411 6.0443141,-26.779411 L 1.9785726,-26.779411 L 1.9785726,-19.779411 C 1.9785726,-13.446078 2.1690488,-12.779411 3.9785726,-12.779411 C 5.4452393,-12.779411 5.9785726,-13.446078 5.9785726,-15.279411 z M 5.9785726,-22.279411 C 5.9785726,-24.936028 6.6243825,-25.289655 8.8742899,-23.865023 C 10.598955,-22.772972 9.5992974,-19.779411 7.5099574,-19.779411 C 6.5431469,-19.779411 5.9785726,-20.701084 5.9785726,-22.279411 z M 21.171075,-17.029411 C 21.340199,-19.366911 21.928573,-21.279411 22.478573,-21.279411 C 23.028573,-21.279411 23.616947,-19.366911 23.786071,-17.029411 C 24.034664,-13.593544 24.465676,-12.779411 26.036071,-12.779411 C 27.66358,-12.779411 27.978573,-13.489269 27.978573,-17.156966 C 27.978573,-22.019397 26.162635,-24.322313 22.983899,-23.491055 C 21.387074,-23.073476 20.978573,-23.456849 20.978573,-25.373031 C 20.978573,-27.112744 20.42449,-27.779411 18.978573,-27.779411 C 17.156351,-27.779411 16.978573,-27.112744 16.978573,-20.279411 C 16.978573,-13.520077 17.170406,-12.779411 18.921075,-12.779411 C 20.49147,-12.779411 20.922482,-13.593544 21.171075,-17.029411 z M 47.978573,-20.279411 C 47.978573,-27.112744 47.800795,-27.779411 45.978573,-27.779411 C 44.156351,-27.779411 43.978573,-27.112744 43.978573,-20.279411 C 43.978573,-13.446078 44.156351,-12.779411 45.978573,-12.779411 C 47.800795,-12.779411 47.978573,-13.446078 47.978573,-20.279411 z M 82.044314,-13.814595 C 84.093158,-14.911103 84.660435,-18.239963 82.975869,-19.281082 C 82.306456,-19.694802 82.305797,-20.522317 82.973886,-21.770653 C 84.510494,-24.641831 81.708016,-26.779411 76.407144,-26.779411 L 71.978573,-26.779411 L 71.978573,-19.779411 L 71.978573,-12.779411 L 76.044314,-12.779411 C 78.280472,-12.779411 80.980472,-13.245244 82.044314,-13.814595 z M 75.978573,-17.279411 C 75.978573,-19.26175 76.417823,-19.841467 77.728573,-19.58904 C 78.691073,-19.40368 79.478573,-18.364346 79.478573,-17.279411 C 79.478573,-16.194476 78.691073,-15.155142 77.728573,-14.969782 C 76.417823,-14.717355 75.978573,-15.297072 75.978573,-17.279411 z M 75.978573,-23.352735 C 75.978573,-24.283974 76.658943,-24.794108 77.645707,-24.602735 C 80.154476,-24.116184 80.498951,-21.779411 78.061906,-21.779411 C 76.833569,-21.779411 75.978573,-22.4251 75.978573,-23.352735 z M 112.01629,-15.029411 L 113.87459,-17.279411 L 115.48328,-15.029411 C 116.36806,-13.791911 118.01987,-12.779411 119.15396,-12.779411 C 121.11957,-12.779411 121.09076,-12.943543 118.53747,-16.291076 L 115.85899,-19.80274 L 117.91878,-22.695446 C 119.05167,-24.286434 119.97857,-25.856185 119.97857,-26.183781 C 119.97857,-27.479429 117.48964,-26.668714 115.37851,-24.685411 L 113.14955,-22.591412 L 112.02888,-24.685411 C 111.41251,-25.837111 109.98733,-26.779411 108.86183,-26.779411 C 106.83078,-26.779411 106.83201,-26.752613 109.02706,-23.200951 L 111.23867,-19.622491 L 109.10862,-16.741443 C 106.55889,-13.292749 106.48888,-12.779411 108.56828,-12.779411 C 109.44262,-12.779411 110.99422,-13.791911 112.01629,-15.029411 z M 59.817321,-16.279411 C 60.104738,-17.896924 59.924647,-18.040357 58.875638,-17.029411 C 57.074656,-15.293779 55.464727,-15.455338 56.932892,-17.224369 C 58.793527,-19.466297 57.82587,-23.229969 55.296234,-23.590095 C 52.463668,-23.993348 50.62957,-20.644895 51.503515,-16.66585 C 52.10524,-13.926215 52.474233,-13.695707 55.811772,-13.974502 C 58.543484,-14.20269 59.551361,-14.782651 59.817321,-16.279411 z M 53.998629,-20.303577 C 54.694349,-21.141868 55.46951,-21.621807 55.721209,-21.370108 C 56.414707,-20.676611 55.005666,-18.779411 53.797111,-18.779411 C 53.134018,-18.779411 53.20988,-19.353193 53.998629,-20.303577 z M 97.149963,-25.779411 C 96.851925,-28.904638 96.354086,-29.779411 94.873538,-29.779411 C 93.831307,-29.779411 92.978573,-29.302853 92.978573,-28.720394 C 92.978573,-28.137935 93.428573,-27.939492 93.978573,-28.279411 C 94.559665,-28.638545 94.978573,-27.650906 94.978573,-25.921761 C 94.978573,-24.285135 94.416073,-22.719104 93.728573,-22.441692 C 93.041073,-22.164279 93.615465,-21.901779 95.004999,-21.858358 C 97.359542,-21.784782 97.505472,-22.051547 97.149963,-25.779411 z"
           style="fill:#a5b6d9" />
        <path
           id="path2489"
           d="M -0.0214274,-17.279411 L -0.0214274,-31.779411 L 61.978573,-31.779411 L 123.97857,-31.779411 L 123.97857,-17.279411 L 123.97857,-2.779411 L 61.978573,-2.779411 L -0.0214274,-2.779411 L -0.0214274,-17.279411 z M 104.97857,-14.107207 C 104.97857,-15.215304 104.22987,-16.949235 103.31479,-17.960386 C 101.90376,-19.519559 101.84572,-20.162661 102.93274,-22.193774 C 104.6726,-25.444726 103.3872,-27.459187 100.96923,-25.270958 C 98.202593,-22.767184 97.581863,-18.875252 99.594477,-16.651339 C 101.22049,-14.854613 101.1887,-14.631986 98.968729,-12.268933 C 97.682398,-10.899696 95.920886,-9.807935 95.054259,-9.842797 C 94.082633,-9.881884 94.365674,-10.261969 95.792569,-10.834247 C 97.659275,-11.582917 98.045871,-12.392181 97.792569,-15.020861 C 97.529949,-17.746249 97.069524,-18.279411 94.978573,-18.279411 C 92.766485,-18.279411 92.478573,-17.857171 92.478573,-14.613014 C 92.478573,-11.516916 92.245252,-11.122919 90.978573,-12.080047 C 90.153573,-12.703433 89.320173,-13.311711 89.126574,-13.431776 C 88.932975,-13.551841 89.495475,-14.679304 90.376574,-15.93725 C 93.194684,-19.960665 91.954333,-25.779411 88.278573,-25.779411 C 86.720986,-25.779411 86.519381,-22.099142 88.049037,-21.589256 C 88.701669,-21.371712 88.218644,-19.544712 86.811552,-16.908574 L 84.503603,-12.584713 L 87.227564,-10.432062 C 88.725742,-9.248104 91.180882,-7.322989 92.683431,-6.154028 L 95.415338,-4.028645 L 100.19695,-8.060565 C 102.9894,-10.41519 104.97857,-12.930617 104.97857,-14.107207 z M 93.978573,-14.779411 C 93.978573,-15.879411 94.428573,-16.779411 94.978573,-16.779411 C 95.528573,-16.779411 95.978573,-15.879411 95.978573,-14.779411 C 95.978573,-13.679411 95.528573,-12.779411 94.978573,-12.779411 C 94.428573,-12.779411 93.978573,-13.679411 93.978573,-14.779411 z M 35.756522,-10.029411 C 36.319083,-10.716911 37.917658,-14.091911 39.308911,-17.529411 C 41.672638,-23.369695 41.717029,-23.779411 39.986069,-23.779411 C 38.738201,-23.779411 37.736997,-22.57746 36.918164,-20.096371 L 35.702651,-16.41333 L 34.233658,-20.096371 C 33.286237,-22.471732 32.112069,-23.779411 30.926648,-23.779411 C 29.222711,-23.779411 29.272714,-23.363168 31.612102,-18.073396 C 33.875114,-12.956323 33.972649,-12.248247 32.557073,-11.213153 C 31.688898,-10.578328 30.978573,-9.771035 30.978573,-9.419168 C 30.978573,-8.270887 34.707258,-8.747117 35.756522,-10.029411 z M 67.655845,-18.283289 C 70.244051,-25.955991 70.380148,-26.779411 69.060103,-26.779411 C 68.554945,-26.779411 67.139099,-23.741911 65.913779,-20.029411 C 64.688459,-16.316911 63.455063,-12.655509 63.172899,-11.892961 C 62.860339,-11.048268 63.182161,-10.680607 63.996496,-10.952052 C 64.731638,-11.197099 66.378345,-14.496156 67.655845,-18.283289 z M 5.9785726,-15.279411 C 5.9785726,-17.139265 6.5075232,-17.779411 8.0443141,-17.779411 C 11.467736,-17.779411 13.978573,-19.683401 13.978573,-22.279411 C 13.978573,-25.29925 11.368799,-26.779411 6.0443141,-26.779411 L 1.9785726,-26.779411 L 1.9785726,-19.779411 C 1.9785726,-13.446078 2.1690488,-12.779411 3.9785726,-12.779411 C 5.4452393,-12.779411 5.9785726,-13.446078 5.9785726,-15.279411 z M 5.9785726,-22.279411 C 5.9785726,-23.112744 6.8674615,-23.779411 7.9785726,-23.779411 C 9.0896837,-23.779411 9.9785726,-23.112744 9.9785726,-22.279411 C 9.9785726,-21.446078 9.0896837,-20.779411 7.9785726,-20.779411 C 6.8674615,-20.779411 5.9785726,-21.446078 5.9785726,-22.279411 z M 20.978573,-16.779411 C 20.978573,-19.6683 21.39524,-20.779411 22.478573,-20.779411 C 23.561906,-20.779411 23.978573,-19.6683 23.978573,-16.779411 C 23.978573,-13.446078 24.311906,-12.779411 25.978573,-12.779411 C 27.673989,-12.779411 27.978573,-13.446078 27.978573,-17.156966 C 27.978573,-22.019397 26.162635,-24.322313 22.983899,-23.491055 C 21.387074,-23.073476 20.978573,-23.456849 20.978573,-25.373031 C 20.978573,-27.112744 20.42449,-27.779411 18.978573,-27.779411 C 17.156351,-27.779411 16.978573,-27.112744 16.978573,-20.279411 C 16.978573,-13.446078 17.156351,-12.779411 18.978573,-12.779411 C 20.64524,-12.779411 20.978573,-13.446078 20.978573,-16.779411 z M 47.978573,-20.279411 C 47.978573,-27.112744 47.800795,-27.779411 45.978573,-27.779411 C 44.156351,-27.779411 43.978573,-27.112744 43.978573,-20.279411 C 43.978573,-13.446078 44.156351,-12.779411 45.978573,-12.779411 C 47.800795,-12.779411 47.978573,-13.446078 47.978573,-20.279411 z M 59.996592,-15.301123 C 60.778423,-16.243171 60.734224,-16.812393 59.836148,-17.367434 C 59.142831,-17.795928 58.423712,-17.614827 58.204257,-16.956462 C 57.988464,-16.309084 57.389032,-15.779411 56.872187,-15.779411 C 56.355341,-15.779411 56.628049,-16.841004 57.478206,-18.138506 C 58.328362,-19.436008 58.740591,-21.236008 58.39427,-22.138506 C 57.608372,-24.186522 53.639417,-24.280605 51.98767,-22.290373 C 50.528988,-20.532769 51.431878,-14.128309 53.22249,-13.531439 C 55.094228,-12.907526 58.817288,-13.880148 59.996592,-15.301123 z M 53.998629,-20.303577 C 54.694349,-21.141868 55.46951,-21.621807 55.721209,-21.370108 C 56.414707,-20.676611 55.005666,-18.779411 53.797111,-18.779411 C 53.134018,-18.779411 53.20988,-19.353193 53.998629,-20.303577 z M 82.748997,-14.029411 C 83.914715,-15.46458 83.850633,-23.664379 82.659124,-25.529411 C 82.196844,-26.253004 79.779764,-26.779411 76.919556,-26.779411 L 71.978573,-26.779411 L 71.978573,-19.779411 L 71.978573,-12.779411 L 76.856128,-12.779411 C 79.550005,-12.779411 82.188239,-13.339035 82.748997,-14.029411 z M 75.978573,-17.279411 C 75.978573,-18.112744 76.867462,-18.779411 77.978573,-18.779411 C 79.089684,-18.779411 79.978573,-18.112744 79.978573,-17.279411 C 79.978573,-16.446078 79.089684,-15.779411 77.978573,-15.779411 C 76.867462,-15.779411 75.978573,-16.446078 75.978573,-17.279411 z M 75.978573,-22.779411 C 75.978573,-23.329411 76.878573,-23.779411 77.978573,-23.779411 C 79.078573,-23.779411 79.978573,-23.329411 79.978573,-22.779411 C 79.978573,-22.229411 79.078573,-21.779411 77.978573,-21.779411 C 76.878573,-21.779411 75.978573,-22.229411 75.978573,-22.779411 z M 112.01629,-15.029411 L 113.87459,-17.279411 L 115.48328,-15.029411 C 116.36806,-13.791911 118.01987,-12.779411 119.15396,-12.779411 C 121.11595,-12.779411 121.08484,-12.951298 118.51247,-16.323855 L 115.80899,-19.868298 L 118.44467,-23.323855 C 121.02045,-26.700879 121.0317,-26.779411 118.93975,-26.779411 C 117.76242,-26.779411 116.00113,-25.793888 115.02576,-24.589359 L 113.25236,-22.399308 L 112.08028,-24.589359 C 111.43564,-25.793888 109.98733,-26.779411 108.86183,-26.779411 C 106.8211,-26.779411 106.8214,-26.76978 108.97231,-23.289535 L 111.12918,-19.799658 L 109.05387,-16.885164 C 107.91246,-15.282192 106.97857,-13.702637 106.97857,-13.375041 C 106.97857,-11.89436 110.33825,-12.997667 112.01629,-15.029411 z M 97.149963,-25.779411 C 96.851925,-28.904638 96.354086,-29.779411 94.873538,-29.779411 C 93.831307,-29.779411 92.978573,-29.329411 92.978573,-28.779411 C 92.978573,-28.229411 93.428573,-27.779411 93.978573,-27.779411 C 95.430056,-27.779411 95.208016,-23.03866 93.728573,-22.441692 C 93.041073,-22.164279 93.615465,-21.901779 95.004999,-21.858358 C 97.359542,-21.784782 97.505472,-22.051547 97.149963,-25.779411 z"
           style="fill:#94a9d2" />
        <path
           id="path2487"
           d="M -0.0214274,-17.279411 L -0.0214274,-31.779411 L 61.978573,-31.779411 L 123.97857,-31.779411 L 123.97857,-17.279411 L 123.97857,-2.779411 L 61.978573,-2.779411 L -0.0214274,-2.779411 L -0.0214274,-17.279411 z M 100.30534,-8.069897 C 105.15814,-12.52525 105.92169,-14.949644 103.48551,-18.167551 C 102.48254,-19.49237 102.34285,-20.591559 103.01732,-21.85181 C 104.40163,-24.438432 104.19982,-26.779411 102.59251,-26.779411 C 101.36458,-26.779411 97.978573,-21.222296 97.978573,-19.207023 C 97.978573,-18.783451 98.737691,-17.598077 99.665501,-16.572858 C 101.25236,-14.819396 101.23753,-14.593841 99.415501,-12.770459 C 97.49934,-10.852878 97.478573,-10.872019 97.478573,-14.555753 C 97.478573,-17.860988 97.197651,-18.279411 94.978573,-18.279411 C 92.774391,-18.279411 92.478573,-17.852993 92.478573,-14.675685 C 92.478573,-11.554484 92.254246,-11.212239 90.803188,-12.119634 C 89.31027,-13.053206 89.283042,-13.467509 90.553188,-15.9237 C 93.051431,-20.754769 91.891786,-25.779411 88.278573,-25.779411 C 86.777427,-25.779411 86.506926,-22.188939 87.941285,-21.302456 C 88.50318,-20.955186 88.07148,-19.225241 86.904396,-17.147346 C 84.398465,-12.685745 84.98643,-10.914845 89.998432,-7.828383 C 92.187509,-6.480317 93.978573,-5.017817 93.978573,-4.578383 C 93.978573,-2.920185 95.777677,-3.913044 100.30534,-8.069897 z M 93.978573,-14.779411 C 93.978573,-15.879411 94.428573,-16.779411 94.978573,-16.779411 C 95.528573,-16.779411 95.978573,-15.879411 95.978573,-14.779411 C 95.978573,-13.679411 95.528573,-12.779411 94.978573,-12.779411 C 94.428573,-12.779411 93.978573,-13.679411 93.978573,-14.779411 z M 35.887371,-10.169519 C 36.521899,-10.934079 38.11856,-14.309079 39.435507,-17.669519 C 41.657979,-23.340582 41.70036,-23.779411 40.025584,-23.779411 C 38.939484,-23.779411 37.694985,-22.508984 36.899272,-20.587962 L 35.577331,-17.396513 L 34.275084,-20.587962 C 33.426756,-22.66698 32.2811,-23.779411 30.988315,-23.779411 C 29.072869,-23.779411 29.091989,-23.579983 31.537629,-18.049957 C 33.785518,-12.967083 33.896946,-12.192892 32.525019,-11.189715 C 31.674474,-10.567781 30.978573,-9.771035 30.978573,-9.419168 C 30.978573,-8.207495 34.735665,-8.781798 35.887371,-10.169519 z M 67.655845,-18.283289 C 70.282873,-26.071078 70.433591,-27.09775 68.873489,-26.577716 C 68.265692,-26.375117 66.696718,-22.850117 65.386879,-18.744383 C 62.586809,-9.967469 62.673261,-10.510974 64.155845,-11.005168 C 64.803345,-11.221002 66.378345,-14.496156 67.655845,-18.283289 z M 5.9785726,-15.279411 C 5.9785726,-17.35084 6.4585726,-17.779411 8.7785726,-17.779411 C 12.109673,-17.779411 13.978573,-19.396728 13.978573,-22.279411 C 13.978573,-25.540906 11.996965,-26.779411 6.7785726,-26.779411 L 1.9785726,-26.779411 L 1.9785726,-19.779411 C 1.9785726,-13.446078 2.1690488,-12.779411 3.9785726,-12.779411 C 5.4452393,-12.779411 5.9785726,-13.446078 5.9785726,-15.279411 z M 5.9785726,-22.279411 C 5.9785726,-23.112744 6.8674615,-23.779411 7.9785726,-23.779411 C 9.0896837,-23.779411 9.9785726,-23.112744 9.9785726,-22.279411 C 9.9785726,-21.446078 9.0896837,-20.779411 7.9785726,-20.779411 C 6.8674615,-20.779411 5.9785726,-21.446078 5.9785726,-22.279411 z M 20.978573,-16.779411 C 20.978573,-19.6683 21.39524,-20.779411 22.478573,-20.779411 C 23.561906,-20.779411 23.978573,-19.6683 23.978573,-16.779411 C 23.978573,-13.446078 24.311906,-12.779411 25.978573,-12.779411 C 27.673989,-12.779411 27.978573,-13.446078 27.978573,-17.156966 C 27.978573,-22.019397 26.162635,-24.322313 22.983899,-23.491055 C 21.387074,-23.073476 20.978573,-23.456849 20.978573,-25.373031 C 20.978573,-27.112744 20.42449,-27.779411 18.978573,-27.779411 C 17.156351,-27.779411 16.978573,-27.112744 16.978573,-20.279411 C 16.978573,-13.446078 17.156351,-12.779411 18.978573,-12.779411 C 20.64524,-12.779411 20.978573,-13.446078 20.978573,-16.779411 z M 47.978573,-20.279411 C 47.978573,-27.112744 47.800795,-27.779411 45.978573,-27.779411 C 44.156351,-27.779411 43.978573,-27.112744 43.978573,-20.279411 C 43.978573,-13.446078 44.156351,-12.779411 45.978573,-12.779411 C 47.800795,-12.779411 47.978573,-13.446078 47.978573,-20.279411 z M 59.562502,-14.872152 C 60.889772,-16.338769 61.045845,-17.112139 60.187727,-17.970257 C 59.329609,-18.828375 58.884434,-18.697664 58.404367,-17.446628 C 58.052493,-16.529659 57.352367,-15.779411 56.848531,-15.779411 C 56.344696,-15.779411 56.667319,-16.900937 57.565471,-18.271691 C 58.463624,-19.642444 58.938121,-21.442444 58.619909,-22.271691 C 57.875716,-24.211027 53.591687,-24.223094 51.98767,-22.290373 C 50.55769,-20.567352 51.416963,-14.133281 53.154399,-13.554136 C 55.889488,-12.642439 57.923188,-13.06073 59.562502,-14.872152 z M 53.978573,-19.661377 C 53.978573,-20.211377 54.428573,-20.939492 54.978573,-21.279411 C 55.528573,-21.61933 55.978573,-21.447445 55.978573,-20.897445 C 55.978573,-20.347445 55.528573,-19.61933 54.978573,-19.279411 C 54.428573,-18.939492 53.978573,-19.111377 53.978573,-19.661377 z M 82.811187,-14.077724 C 84.109018,-15.641513 84.019264,-23.775686 82.684828,-25.529411 C 82.152836,-26.228558 79.584229,-26.779411 76.856128,-26.779411 L 71.978573,-26.779411 L 71.978573,-19.779411 L 71.978573,-12.779411 L 76.856128,-12.779411 C 79.635023,-12.779411 82.1973,-13.338035 82.811187,-14.077724 z M 75.978573,-17.279411 C 75.978573,-18.112744 76.867462,-18.779411 77.978573,-18.779411 C 79.089684,-18.779411 79.978573,-18.112744 79.978573,-17.279411 C 79.978573,-16.446078 79.089684,-15.779411 77.978573,-15.779411 C 76.867462,-15.779411 75.978573,-16.446078 75.978573,-17.279411 z M 75.978573,-22.779411 C 75.978573,-23.329411 76.905131,-23.779411 78.03759,-23.779411 C 79.170049,-23.779411 79.818492,-23.329411 79.478573,-22.779411 C 79.138654,-22.229411 78.212097,-21.779411 77.419556,-21.779411 C 76.627015,-21.779411 75.978573,-22.229411 75.978573,-22.779411 z M 112.02888,-14.873411 L 113.14955,-16.96741 L 115.37851,-14.873411 C 116.60444,-13.721711 118.38219,-12.779411 119.32907,-12.779411 C 120.81977,-12.779411 120.71851,-13.268237 118.57406,-16.424067 L 116.09746,-20.068723 L 118.6567,-23.424067 C 121.21566,-26.77904 121.2157,-26.779411 119.00755,-26.779411 C 117.79293,-26.779411 116.00113,-25.793888 115.02576,-24.589359 L 113.25236,-22.399308 L 112.08028,-24.589359 C 111.43564,-25.793888 110.02404,-26.779411 108.94339,-26.779411 C 106.46853,-26.779411 106.48549,-26.365348 109.10552,-22.821573 L 111.23247,-19.94472 L 109.10552,-16.957695 C 106.48277,-13.274385 106.46356,-12.779411 108.94339,-12.779411 C 110.02404,-12.779411 111.41251,-13.721711 112.02888,-14.873411 z M 97.585562,-23.361199 C 97.251718,-24.231182 96.978573,-26.031182 96.978573,-27.361199 C 96.978573,-29.112744 96.427202,-29.779411 94.978573,-29.779411 C 93.878573,-29.779411 92.978573,-29.329411 92.978573,-28.779411 C 92.978573,-28.229411 93.428573,-27.779411 93.978573,-27.779411 C 94.528573,-27.779411 94.978573,-26.879411 94.978573,-25.779411 C 94.978573,-24.679411 94.528573,-23.779411 93.978573,-23.779411 C 93.428573,-23.779411 92.978573,-23.329411 92.978573,-22.779411 C 92.978573,-22.229411 94.151718,-21.779411 95.585562,-21.779411 C 97.551952,-21.779411 98.043399,-22.168093 97.585562,-23.361199 z"
           style="fill:#839bcb" />
        <path
           id="path2485"
           d="M -0.0214274,-17.279411 L -0.0214274,-31.779411 L 61.978573,-31.779411 L 123.97857,-31.779411 L 123.97857,-17.279411 L 123.97857,-2.779411 L 61.978573,-2.779411 L -0.0214274,-2.779411 L -0.0214274,-17.279411 z M 100.32677,-7.959432 C 105.29462,-12.423449 106.41677,-16.340924 103.43619,-18.814585 C 102.36613,-19.702657 102.21301,-20.413854 102.93619,-21.137029 C 103.5095,-21.710339 103.97857,-23.214411 103.97857,-24.479411 C 103.97857,-28.108574 101.0651,-27.230766 99.330362,-23.078936 C 97.931413,-19.730779 97.934099,-19.124711 99.35857,-16.713273 C 100.80678,-14.261643 100.79454,-13.922718 99.205754,-12.483521 C 97.59897,-11.028019 97.478573,-11.175496 97.478573,-14.599184 C 97.478573,-17.956867 97.237556,-18.275956 94.728573,-18.23999 C 92.547121,-18.20872 91.978573,-18.656986 91.978573,-20.408203 C 91.978573,-23.931 90.909355,-25.779411 88.871584,-25.779411 C 86.836749,-25.779411 86.179637,-22.391215 87.996676,-21.268222 C 88.622151,-20.881658 88.198748,-19.492989 86.898775,-17.667345 C 84.086371,-13.717687 84.969925,-10.890125 89.973246,-7.828383 C 92.176176,-6.480317 93.978573,-5.017817 93.978573,-4.578383 C 93.978573,-2.92714 95.814936,-3.905188 100.32677,-7.959432 z M 90.75305,-12.153559 C 89.27929,-13.272886 89.222597,-13.730874 90.36449,-15.292506 C 91.59645,-16.977312 91.738002,-16.871886 92.16682,-13.950161 C 92.422772,-12.206249 92.597624,-10.793723 92.55538,-10.811214 C 92.513136,-10.828706 91.702088,-11.432761 90.75305,-12.153559 z M 93.978573,-14.779411 C 93.978573,-15.879411 94.428573,-16.779411 94.978573,-16.779411 C 95.528573,-16.779411 95.978573,-15.879411 95.978573,-14.779411 C 95.978573,-13.679411 95.528573,-12.779411 94.978573,-12.779411 C 94.428573,-12.779411 93.978573,-13.679411 93.978573,-14.779411 z M 36.387285,-11.029411 C 37.187434,-12.266911 38.766242,-15.641911 39.895745,-18.529411 C 41.934007,-23.740089 41.93454,-23.779411 39.966849,-23.779411 C 38.6702,-23.779411 37.527049,-22.658792 36.662618,-20.540309 L 35.340926,-17.301206 L 34.211769,-20.540309 C 33.436413,-22.764496 32.443599,-23.779411 31.043202,-23.779411 C 29.043756,-23.779411 29.052534,-23.669199 31.491183,-18.154981 C 34.423041,-11.52553 34.383722,-11.779411 32.478573,-11.779411 C 31.653573,-11.779411 30.978573,-11.104411 30.978573,-10.279411 C 30.978573,-7.975891 34.751169,-8.499019 36.387285,-11.029411 z M 67.881394,-18.38912 C 69.097496,-22.57446 69.871796,-26.219521 69.602062,-26.489256 C 68.453358,-27.637959 67.147377,-25.441735 65.510855,-19.609216 C 64.550284,-16.185767 63.539415,-12.798559 63.264479,-12.082087 C 62.989543,-11.365615 63.418379,-10.779411 64.217448,-10.779411 C 65.166929,-10.779411 66.43638,-13.415955 67.881394,-18.38912 z M 5.9785726,-15.279411 C 5.9785726,-17.35084 6.4585726,-17.779411 8.7785726,-17.779411 C 12.109673,-17.779411 13.978573,-19.396728 13.978573,-22.279411 C 13.978573,-25.540906 11.996965,-26.779411 6.7785726,-26.779411 L 1.9785726,-26.779411 L 1.9785726,-19.779411 C 1.9785726,-13.446078 2.1690488,-12.779411 3.9785726,-12.779411 C 5.4452393,-12.779411 5.9785726,-13.446078 5.9785726,-15.279411 z M 5.9785726,-22.279411 C 5.9785726,-23.112744 6.8674615,-23.779411 7.9785726,-23.779411 C 9.0896837,-23.779411 9.9785726,-23.112744 9.9785726,-22.279411 C 9.9785726,-21.446078 9.0896837,-20.779411 7.9785726,-20.779411 C 6.8674615,-20.779411 5.9785726,-21.446078 5.9785726,-22.279411 z M 20.978573,-16.779411 C 20.978573,-19.6683 21.39524,-20.779411 22.478573,-20.779411 C 23.561906,-20.779411 23.978573,-19.6683 23.978573,-16.779411 C 23.978573,-13.412125 24.303196,-12.779411 26.030833,-12.779411 C 27.87829,-12.779411 28.052929,-13.303327 27.780833,-18.029411 C 27.481642,-23.226111 27.445578,-23.279313 24.228573,-23.269745 C 21.517898,-23.261682 20.978573,-23.635061 20.978573,-25.519745 C 20.978573,-27.112744 20.388515,-27.779411 18.978573,-27.779411 C 17.156351,-27.779411 16.978573,-27.112744 16.978573,-20.279411 C 16.978573,-13.446078 17.156351,-12.779411 18.978573,-12.779411 C 20.64524,-12.779411 20.978573,-13.446078 20.978573,-16.779411 z M 47.978573,-20.279411 C 47.978573,-27.112744 47.800795,-27.779411 45.978573,-27.779411 C 44.156351,-27.779411 43.978573,-27.112744 43.978573,-20.279411 C 43.978573,-13.446078 44.156351,-12.779411 45.978573,-12.779411 C 47.800795,-12.779411 47.978573,-13.446078 47.978573,-20.279411 z M 59.449923,-14.134803 C 60.662436,-15.021415 61.067194,-16.106085 60.620204,-17.270923 C 59.970549,-18.963895 59.827022,-18.958702 57.707724,-17.16553 C 55.484385,-15.284328 55.483135,-15.28483 57.228573,-17.358152 C 59.558645,-20.125932 59.438211,-22.463052 56.895386,-23.823931 C 53.749357,-25.507635 50.787857,-22.438809 51.102694,-17.821311 C 51.235519,-15.873266 51.513486,-13.941911 51.7204,-13.529411 C 52.344617,-12.284981 57.469026,-12.686336 59.449923,-14.134803 z M 82.811187,-14.077724 C 84.109018,-15.641513 84.019264,-23.775686 82.684828,-25.529411 C 82.152836,-26.228558 79.584229,-26.779411 76.856128,-26.779411 L 71.978573,-26.779411 L 71.978573,-19.779411 L 71.978573,-12.779411 L 76.856128,-12.779411 C 79.635023,-12.779411 82.1973,-13.338035 82.811187,-14.077724 z M 75.978573,-17.279411 C 75.978573,-18.112744 76.867462,-18.779411 77.978573,-18.779411 C 79.089684,-18.779411 79.978573,-18.112744 79.978573,-17.279411 C 79.978573,-16.446078 79.089684,-15.779411 77.978573,-15.779411 C 76.867462,-15.779411 75.978573,-16.446078 75.978573,-17.279411 z M 75.978573,-22.779411 C 75.978573,-23.329411 76.905131,-23.779411 78.03759,-23.779411 C 79.170049,-23.779411 79.818492,-23.329411 79.478573,-22.779411 C 79.138654,-22.229411 78.212097,-21.779411 77.419556,-21.779411 C 76.627015,-21.779411 75.978573,-22.229411 75.978573,-22.779411 z M 112.08028,-14.969463 L 113.25236,-17.159514 L 115.08528,-14.895956 C 116.18051,-13.543402 117.75589,-12.762598 118.99959,-12.955904 C 121.04507,-13.273829 121.03779,-13.337726 118.57761,-16.658851 L 116.07424,-20.038291 L 118.6451,-23.408851 L 121.21595,-26.779411 L 118.83781,-26.779411 C 117.50091,-26.779411 115.88238,-25.855032 115.14118,-24.668179 L 113.82269,-22.556947 L 112.34393,-24.668179 C 111.53061,-25.829357 109.99068,-26.779411 108.92187,-26.779411 C 106.47005,-26.779411 106.48821,-26.276804 109.07109,-22.649475 L 111.16361,-19.710799 L 108.5202,-16.245105 L 105.87679,-12.779411 L 108.39249,-12.779411 C 109.95752,-12.779411 111.35113,-13.607031 112.08028,-14.969463 z M 97.585562,-23.361199 C 97.251718,-24.231182 96.978573,-26.031182 96.978573,-27.361199 C 96.978573,-29.112744 96.427202,-29.779411 94.978573,-29.779411 C 93.878573,-29.779411 92.978573,-29.329411 92.978573,-28.779411 C 92.978573,-28.229411 93.428573,-27.779411 93.978573,-27.779411 C 94.528573,-27.779411 94.978573,-26.879411 94.978573,-25.779411 C 94.978573,-24.679411 94.528573,-23.779411 93.978573,-23.779411 C 93.428573,-23.779411 92.978573,-23.329411 92.978573,-22.779411 C 92.978573,-22.229411 94.151718,-21.779411 95.585562,-21.779411 C 97.551952,-21.779411 98.043399,-22.168093 97.585562,-23.361199 z"
           style="fill:#7791c6" />
        <path
           id="path2483"
           d="M -0.0214274,-17.279411 L -0.0214274,-31.779411 L 61.978573,-31.779411 L 123.97857,-31.779411 L 123.97857,-17.279411 L 123.97857,-2.779411 L 61.978573,-2.779411 L -0.0214274,-2.779411 L -0.0214274,-17.279411 z M 100.32677,-7.959432 C 105.29462,-12.423449 106.41677,-16.340924 103.43619,-18.814585 C 102.36613,-19.702657 102.21301,-20.413854 102.93619,-21.137029 C 103.5095,-21.710339 103.97857,-23.214411 103.97857,-24.479411 C 103.97857,-28.108574 101.0651,-27.230766 99.330362,-23.078936 C 97.931413,-19.730779 97.934099,-19.124711 99.35857,-16.713273 C 100.80678,-14.261643 100.79454,-13.922718 99.205754,-12.483521 C 97.59897,-11.028019 97.478573,-11.175496 97.478573,-14.599184 C 97.478573,-17.9553 97.236791,-18.275971 94.733176,-18.240348 C 93.223207,-18.218863 92.079019,-18.668863 92.190534,-19.240348 C 92.72179,-21.962878 90.836005,-25.779411 88.959521,-25.779411 C 86.844969,-25.779411 86.128549,-22.422789 87.996676,-21.268222 C 88.62509,-20.879841 88.242329,-19.554193 86.996676,-17.804835 C 83.897358,-13.452244 84.423844,-11.420072 89.478573,-8.225008 C 91.953573,-6.660575 93.978573,-5.02032 93.978573,-4.579998 C 93.978573,-2.927104 95.813562,-3.903953 100.32677,-7.959432 z M 90.75305,-12.153559 C 89.27929,-13.272886 89.222597,-13.730874 90.36449,-15.292506 C 91.59645,-16.977312 91.738002,-16.871886 92.16682,-13.950161 C 92.422772,-12.206249 92.597624,-10.793723 92.55538,-10.811214 C 92.513136,-10.828706 91.702088,-11.432761 90.75305,-12.153559 z M 93.978573,-14.779411 C 93.978573,-15.879411 94.428573,-16.779411 94.978573,-16.779411 C 95.528573,-16.779411 95.978573,-15.879411 95.978573,-14.779411 C 95.978573,-13.679411 95.528573,-12.779411 94.978573,-12.779411 C 94.428573,-12.779411 93.978573,-13.679411 93.978573,-14.779411 z M 36.349602,-9.570732 C 36.618587,-10.005958 37.974978,-13.380958 39.363805,-17.070732 C 41.827217,-23.615414 41.839878,-23.779411 39.88174,-23.779411 C 38.517653,-23.779411 37.512746,-22.741586 36.745377,-20.540309 L 35.61622,-17.301206 L 34.294528,-20.540309 C 33.433321,-22.650893 32.28565,-23.779411 31.000456,-23.779411 C 28.873031,-23.779411 28.865802,-23.821875 32.404948,-15.529411 C 33.817526,-12.219642 33.827745,-11.779411 32.491993,-11.779411 C 31.659612,-11.779411 30.978573,-11.104411 30.978573,-10.279411 C 30.978573,-8.706221 35.450626,-8.116157 36.349602,-9.570732 z M 67.976331,-18.272261 C 70.138405,-25.166285 70.187473,-28.506479 68.092978,-26.212744 C 67.237508,-25.275897 62.978573,-13.095088 62.978573,-11.585239 C 62.978573,-11.142034 63.574346,-10.779411 64.302514,-10.779411 C 65.074229,-10.779411 66.606606,-13.904737 67.976331,-18.272261 z M 5.9785726,-15.279411 C 5.9785726,-17.35084 6.4585726,-17.779411 8.7785726,-17.779411 C 12.109673,-17.779411 13.978573,-19.396728 13.978573,-22.279411 C 13.978573,-25.540906 11.996965,-26.779411 6.7785726,-26.779411 L 1.9785726,-26.779411 L 1.9785726,-19.779411 C 1.9785726,-13.446078 2.1690488,-12.779411 3.9785726,-12.779411 C 5.4452393,-12.779411 5.9785726,-13.446078 5.9785726,-15.279411 z M 5.9785726,-22.279411 C 5.9785726,-23.112744 6.8674615,-23.779411 7.9785726,-23.779411 C 9.0896837,-23.779411 9.9785726,-23.112744 9.9785726,-22.279411 C 9.9785726,-21.446078 9.0896837,-20.779411 7.9785726,-20.779411 C 6.8674615,-20.779411 5.9785726,-21.446078 5.9785726,-22.279411 z M 20.978573,-16.779411 C 20.978573,-19.6683 21.39524,-20.779411 22.478573,-20.779411 C 23.561906,-20.779411 23.978573,-19.6683 23.978573,-16.779411 C 23.978573,-13.412125 24.303196,-12.779411 26.030833,-12.779411 C 27.87829,-12.779411 28.052929,-13.303327 27.780833,-18.029411 C 27.481642,-23.226111 27.445578,-23.279313 24.228573,-23.269745 C 21.517898,-23.261682 20.978573,-23.635061 20.978573,-25.519745 C 20.978573,-27.112744 20.388515,-27.779411 18.978573,-27.779411 C 17.156351,-27.779411 16.978573,-27.112744 16.978573,-20.279411 C 16.978573,-13.446078 17.156351,-12.779411 18.978573,-12.779411 C 20.64524,-12.779411 20.978573,-13.446078 20.978573,-16.779411 z M 47.978573,-20.279411 C 47.978573,-27.112744 47.800795,-27.779411 45.978573,-27.779411 C 44.156351,-27.779411 43.978573,-27.112744 43.978573,-20.279411 C 43.978573,-13.446078 44.156351,-12.779411 45.978573,-12.779411 C 47.800795,-12.779411 47.978573,-13.446078 47.978573,-20.279411 z M 59.449923,-14.134803 C 60.649893,-15.012243 61.065749,-16.10985 60.62922,-17.247428 C 60.055863,-18.741572 59.694674,-18.807872 58.21674,-17.690263 C 56.739651,-16.573294 56.666327,-16.586418 57.728573,-17.777639 C 59.606246,-19.883295 59.235826,-22.571366 56.895386,-23.823931 C 53.834312,-25.462168 50.978573,-22.550428 50.978573,-17.79109 C 50.978573,-15.768 51.278573,-13.812744 51.64524,-13.446078 C 52.790955,-12.300362 57.510775,-12.716864 59.449923,-14.134803 z M 82.811187,-14.077724 C 84.109018,-15.641513 84.019264,-23.775686 82.684828,-25.529411 C 82.152836,-26.228558 79.584229,-26.779411 76.856128,-26.779411 L 71.978573,-26.779411 L 71.978573,-19.779411 L 71.978573,-12.779411 L 76.856128,-12.779411 C 79.635023,-12.779411 82.1973,-13.338035 82.811187,-14.077724 z M 75.978573,-17.279411 C 75.978573,-18.112744 76.867462,-18.779411 77.978573,-18.779411 C 79.089684,-18.779411 79.978573,-18.112744 79.978573,-17.279411 C 79.978573,-16.446078 79.089684,-15.779411 77.978573,-15.779411 C 76.867462,-15.779411 75.978573,-16.446078 75.978573,-17.279411 z M 75.978573,-22.779411 C 75.978573,-23.329411 76.905131,-23.779411 78.03759,-23.779411 C 79.170049,-23.779411 79.818492,-23.329411 79.478573,-22.779411 C 79.138654,-22.229411 78.212097,-21.779411 77.419556,-21.779411 C 76.627015,-21.779411 75.978573,-22.229411 75.978573,-22.779411 z M 112.08028,-14.969463 L 113.25236,-17.159514 L 115.02576,-14.969463 C 116.00113,-13.764934 117.75296,-12.779411 118.91872,-12.779411 L 121.03829,-12.779411 L 118.82743,-16.620856 L 116.61658,-20.462301 L 118.86567,-23.620856 L 121.11476,-26.779411 L 118.58185,-26.779411 C 117.03309,-26.779411 115.61274,-25.964377 114.92631,-24.681754 L 113.80367,-22.584098 L 112.33442,-24.681754 C 111.52633,-25.835465 109.99068,-26.779411 108.92187,-26.779411 C 106.47527,-26.779411 106.48967,-26.274754 109.03836,-22.695446 L 111.09815,-19.80274 L 108.41967,-16.291076 L 105.74119,-12.779411 L 108.3247,-12.779411 C 109.95948,-12.779411 111.33862,-13.58365 112.08028,-14.969463 z M 97.585562,-23.361199 C 97.251718,-24.231182 96.978573,-26.031182 96.978573,-27.361199 C 96.978573,-29.112744 96.427202,-29.779411 94.978573,-29.779411 C 93.878573,-29.779411 92.978573,-29.329411 92.978573,-28.779411 C 92.978573,-28.229411 93.428573,-27.779411 93.978573,-27.779411 C 94.528573,-27.779411 94.978573,-26.879411 94.978573,-25.779411 C 94.978573,-24.679411 94.528573,-23.779411 93.978573,-23.779411 C 93.428573,-23.779411 92.978573,-23.329411 92.978573,-22.779411 C 92.978573,-22.229411 94.151718,-21.779411 95.585562,-21.779411 C 97.551952,-21.779411 98.043399,-22.168093 97.585562,-23.361199 z"
           style="fill:#6482be" />
        <path
           id="path2481"
           d="M -0.0214274,-17.279411 L -0.0214274,-31.779411 L 61.978573,-31.779411 L 123.97857,-31.779411 L 123.97857,-17.279411 L 123.97857,-2.779411 L 61.978573,-2.779411 L -0.0214274,-2.779411 L -0.0214274,-17.279411 z M 97.374025,-5.029411 C 98.062953,-5.716911 100.05172,-7.404411 101.79352,-8.779411 C 105.34291,-11.581352 106.15726,-16.556294 103.43619,-18.814585 C 102.36613,-19.702657 102.21301,-20.413854 102.93619,-21.137029 C 104.46063,-22.661472 104.21601,-26.779411 102.60101,-26.779411 C 100.70374,-26.779411 99.100546,-24.639278 98.409511,-21.184103 C 97.932512,-18.799104 97.322332,-18.279411 94.999065,-18.279411 C 93.442835,-18.279411 92.394929,-18.644072 92.670384,-19.089768 C 93.656187,-20.684831 90.75225,-25.779411 88.857253,-25.779411 C 86.835399,-25.779411 86.188058,-22.38601 87.996676,-21.268222 C 88.622981,-20.881145 88.21147,-19.510855 86.927352,-17.707478 C 84.311056,-14.033229 84.728345,-10.656493 87.991298,-9.097935 C 89.373296,-8.43782 91.398296,-6.99785 92.491298,-5.898001 C 94.856197,-3.518288 95.707934,-3.366772 97.374025,-5.029411 z M 97.978573,-14.279411 C 97.978573,-16.60593 98.2072,-16.834557 99.478573,-15.779411 C 100.30357,-15.094722 100.97857,-14.419722 100.97857,-14.279411 C 100.97857,-14.1391 100.30357,-13.4641 99.478573,-12.779411 C 98.2072,-11.724265 97.978573,-11.952892 97.978573,-14.279411 z M 90.073161,-14.529411 C 90.809873,-15.491911 91.539973,-16.466911 91.695605,-16.696078 C 91.851238,-16.925244 91.978573,-16.137744 91.978573,-14.946078 C 91.978573,-13.614144 91.353507,-12.779411 90.356128,-12.779411 C 88.967333,-12.779411 88.926582,-13.031429 90.073161,-14.529411 z M 93.978573,-14.779411 C 93.978573,-15.879411 94.428573,-16.779411 94.978573,-16.779411 C 95.528573,-16.779411 95.978573,-15.879411 95.978573,-14.779411 C 95.978573,-13.679411 95.528573,-12.779411 94.978573,-12.779411 C 94.428573,-12.779411 93.978573,-13.679411 93.978573,-14.779411 z M 39.156361,-16.181404 C 40.708578,-19.9775 41.978573,-23.24 41.978573,-23.431404 C 41.978573,-23.622808 41.055164,-23.779411 39.926553,-23.779411 C 38.528023,-23.779411 37.528133,-22.785725 36.786802,-20.659142 L 35.69907,-17.538872 L 34.387096,-20.659142 C 33.500961,-22.766636 32.383245,-23.779411 30.943514,-23.779411 C 29.77113,-23.779411 28.961906,-23.439804 29.14524,-23.024729 C 32.261198,-15.970056 33.254352,-12.371337 32.183783,-12.014481 C 31.520918,-11.793526 30.978573,-10.945354 30.978573,-10.129655 C 30.978573,-9.109325 31.814106,-8.745298 33.656361,-8.962989 C 35.935897,-9.232351 36.753881,-10.305905 39.156361,-16.181404 z M 68.176793,-18.779411 C 70.493887,-25.847322 70.605997,-26.779249 69.139015,-26.778025 C 67.611829,-26.77675 66.5005,-24.092915 63.238913,-12.529411 C 62.937037,-11.45915 63.290814,-10.779411 64.149719,-10.779411 C 65.020009,-10.779411 66.551571,-13.821942 68.176793,-18.779411 z M 5.9785726,-15.279411 C 5.9785726,-17.35084 6.4585726,-17.779411 8.7785726,-17.779411 C 12.109673,-17.779411 13.978573,-19.396728 13.978573,-22.279411 C 13.978573,-25.540906 11.996965,-26.779411 6.7785726,-26.779411 L 1.9785726,-26.779411 L 1.9785726,-19.779411 C 1.9785726,-13.446078 2.1690488,-12.779411 3.9785726,-12.779411 C 5.4452393,-12.779411 5.9785726,-13.446078 5.9785726,-15.279411 z M 5.9785726,-22.279411 C 5.9785726,-23.112744 6.8674615,-23.779411 7.9785726,-23.779411 C 9.0896837,-23.779411 9.9785726,-23.112744 9.9785726,-22.279411 C 9.9785726,-21.446078 9.0896837,-20.779411 7.9785726,-20.779411 C 6.8674615,-20.779411 5.9785726,-21.446078 5.9785726,-22.279411 z M 21.168208,-16.452111 C 21.61401,-21.7275 23.978573,-22.072995 23.978573,-16.862744 C 23.978573,-13.411418 24.296216,-12.779411 26.030833,-12.779411 C 27.87829,-12.779411 28.052929,-13.303327 27.780833,-18.029411 C 27.486075,-23.149103 27.397906,-23.287189 24.228573,-23.592769 C 21.788552,-23.828031 20.978573,-24.388786 20.978573,-25.842769 C 20.978573,-27.112744 20.290096,-27.779411 18.978573,-27.779411 C 17.156351,-27.779411 16.978573,-27.112744 16.978573,-20.279411 C 16.978573,-13.523883 17.171107,-12.779411 18.918208,-12.779411 C 20.429302,-12.779411 20.926414,-13.590853 21.168208,-16.452111 z M 47.978573,-20.279411 C 47.978573,-27.112744 47.800795,-27.779411 45.978573,-27.779411 C 44.156351,-27.779411 43.978573,-27.112744 43.978573,-20.279411 C 43.978573,-13.446078 44.156351,-12.779411 45.978573,-12.779411 C 47.800795,-12.779411 47.978573,-13.446078 47.978573,-20.279411 z M 59.449923,-14.134803 C 60.649893,-15.012243 61.065749,-16.10985 60.62922,-17.247428 C 60.050282,-18.756117 59.721698,-18.81193 58.306085,-17.642035 C 56.811511,-16.406885 56.780606,-16.477507 57.975738,-18.396945 C 60.817291,-22.960613 56.386047,-26.450292 52.447678,-22.750386 C 50.105205,-20.549748 49.956798,-19.138292 51.530711,-14.029411 C 52.043228,-12.365795 57.123116,-12.4334 59.449923,-14.134803 z M 83.478573,-19.779411 L 83.478573,-26.279411 L 77.728573,-26.579315 L 71.978573,-26.879219 L 71.978573,-19.779411 L 71.978573,-12.679603 L 77.728573,-12.979507 L 83.478573,-13.279411 L 83.478573,-19.779411 z M 75.978573,-17.279411 C 75.978573,-18.112744 76.867462,-18.779411 77.978573,-18.779411 C 79.089684,-18.779411 79.978573,-18.112744 79.978573,-17.279411 C 79.978573,-16.446078 79.089684,-15.779411 77.978573,-15.779411 C 76.867462,-15.779411 75.978573,-16.446078 75.978573,-17.279411 z M 75.978573,-22.779411 C 75.978573,-23.329411 76.653573,-23.779411 77.478573,-23.779411 C 78.303573,-23.779411 78.978573,-23.329411 78.978573,-22.779411 C 78.978573,-22.229411 78.303573,-21.779411 77.478573,-21.779411 C 76.653573,-21.779411 75.978573,-22.229411 75.978573,-22.779411 z M 112.33442,-14.877068 L 113.80367,-16.974724 L 114.92631,-14.877068 C 115.60021,-13.61786 117.03414,-12.779411 118.51375,-12.779411 C 121.51864,-12.779411 121.54522,-13.093964 118.84852,-16.741443 L 116.71847,-19.622491 L 118.93008,-23.200951 L 121.14169,-26.779411 L 118.60982,-26.779411 C 117.21729,-26.779411 115.64248,-26.001277 115.11025,-25.050225 C 114.19307,-23.41131 114.0428,-23.41131 112.23182,-25.050225 C 111.18092,-26.001277 109.29061,-26.779411 108.03114,-26.779411 L 105.74119,-26.779411 L 108.30044,-23.424067 L 110.85968,-20.068723 L 108.38308,-16.424067 L 105.90647,-12.779411 L 108.38582,-12.779411 C 109.77002,-12.779411 111.51414,-13.705959 112.33442,-14.877068 z M 97.585562,-23.361199 C 97.251718,-24.231182 96.978573,-26.031182 96.978573,-27.361199 C 96.978573,-29.112744 96.427202,-29.779411 94.978573,-29.779411 C 93.878573,-29.779411 92.978573,-29.329411 92.978573,-28.779411 C 92.978573,-28.229411 93.428573,-27.779411 93.978573,-27.779411 C 94.528573,-27.779411 94.978573,-26.879411 94.978573,-25.779411 C 94.978573,-24.679411 94.528573,-23.779411 93.978573,-23.779411 C 93.428573,-23.779411 92.978573,-23.329411 92.978573,-22.779411 C 92.978573,-22.229411 94.151718,-21.779411 95.585562,-21.779411 C 97.551952,-21.779411 98.043399,-22.168093 97.585562,-23.361199 z"
           style="fill:#5374b7" />
      </g>
    </g>
    <path
       style="font-size:24px;font-style:normal;font-variant:normal;font-weight:bold;font-stretch:normal;text-align:start;line-height:100%;writing-mode:lr-tb;text-anchor:start;fill:#ffffff;fill-opacity:1;stroke:#ffffff;stroke-width:1px;stroke-linecap:butt;stroke-linejoin:miter;stroke-opacity:1;font-family:Arial;-inkscape-font-specification:Arial Bold"
       d="M 59.672581,17.563781 C 60.324608,16.442624 61.195971,16.566768 61.669747,17.976221 C 61.837332,19.259056 62.052134,18.982993 61.328878,19.997339 C 59.643635,22.262219 56.259818,23.34418 53.746267,21.8165 C 53.36895,21.613179 53.175023,20.546102 52.396612,20.689221 C 51.6182,20.832341 48.711187,23.288597 50.187109,22.411354 C 50.56134,22.188923 49.383348,23.337448 49.255873,21.395804 C 49.210462,20.704131 51.176353,18.623529 51.00958,18.222795 C 50.342487,16.61986 49.568628,14.591475 50.279356,12.958739 C 51.732101,9.8462572 54.428983,8.0637799 57.159599,10.177465 C 58.239354,10.799581 59.090677,11.942822 58.008275,14.654014 C 57.153806,15.259112 57.90849,15.852629 55.474622,17.791297 C 54.900701,18.81272 56.080709,19.869695 57.085866,19.804053 C 58.741908,19.857481 59.27357,19.068545 59.672581,17.563781 z M 55.792201,13.056774 C 55.683469,11.007978 52.741205,12.354309 52.519659,14.609251 C 52.251849,15.959312 53.745674,16.721152 54.297654,15.602988 C 54.862295,14.459177 55.325406,14.508186 55.792201,13.056774 z"
       id="text2536"
       sodipodi:nodetypes="ccccssssccccccccsc" />
    <g
       id="g3369"
       transform="translate(-12.132353,0)"
       style="fill:#ffffff;fill-opacity:1;stroke:#ffffff;stroke-opacity:1">
      <text
         sodipodi:linespacing="100%"
         id="text2589"
         y="10.882353"
         x="99.485298"
         style="font-size:11px;font-style:normal;font-variant:normal;font-weight:bold;font-stretch:normal;text-align:start;line-height:100%;writing-mode:lr-tb;text-anchor:start;fill:#ffffff;fill-opacity:1;stroke:#ffffff;stroke-width:1px;stroke-linecap:butt;stroke-linejoin:miter;stroke-opacity:1;font-family:Bitstream Vera Sans;-inkscape-font-specification:Bitstream Vera Sans Bold"
         xml:space="preserve"><tspan
           y="10.882353"
           x="99.485298"
           id="tspan2591"
           sodipodi:role="line">1</tspan><tspan
           id="tspan2593"
           y="21.882353"
           x="99.485298"
           sodipodi:role="line">0</tspan></text>
      <path
         sodipodi:nodetypes="csscssssscccsss"
         id="path2597"
         d="M 92.867646,7.3529412 C 92.911347,9.1923186 95.076393,11.040678 95.294117,12.867647 C 95.620115,15.603172 91.513911,17.195572 91.764706,20.367647 C 92.106552,24.69135 98.809292,26.239408 103.01471,32.500001 C 105.61342,27.100713 113.95616,25.261538 114.04412,20.147059 C 114.0906,17.443924 111.13958,15.558891 111.39706,12.867647 C 111.56141,11.149821 114.29938,9.3493656 114.04411,7.3529412 C 113.83682,5.7317024 111.11675,5.5849844 109.63235,7.3529412 C 108.44926,8.7620266 108.74713,11.040678 108.52941,12.867647 C 108.20341,15.603172 109.63235,21.25 109.63235,21.25 C 109.63235,21.25 105.21385,23.322915 103.01471,27.426471 C 100.6694,23.16472 96.617647,21.029412 96.617647,21.029412 C 96.617647,21.029412 98.955794,15.573261 98.602941,12.867647 C 98.365006,11.043201 97.544557,9.1275626 97.058823,7.3529412 C 96.591044,5.6439193 92.804003,4.6742064 92.867646,7.3529412 z"
         style="fill:#ffffff;fill-opacity:1;fill-rule:evenodd;stroke:#ffffff;stroke-width:1px;stroke-linecap:butt;stroke-linejoin:miter;stroke-opacity:1" />
    </g>
  </g>
</svg>
